<?xml version="1.0" encoding="iso-8859-1"?>
<!-- Generator: Adobe Illustrator 19.1.0, SVG Export Plug-In . SVG Version: 6.00 Build 0)  -->
<svg version="1.1" id="Capa_1" xmlns="http://www.w3.org/2000/svg" xmlns:xlink="http://www.w3.org/1999/xlink" x="0px" y="0px"
	 viewBox="0 0 484.53 484.53" style="enable-background:new 0 0 484.53 484.53;" xml:space="preserve">
<g>
	<g>
		<path d="M169.307,96.83L169.307,96.83c0.1,0,0.2,0,0.3,0s0.2,0,0.3,0l0,0c43.5-0.5,37.2-58.5,37.2-58.5
			c-1.8-38.8-34.2-38.5-37.4-38.3c-3.2-0.1-35.6-0.5-37.4,38.3C132.107,38.33,125.807,96.43,169.307,96.83z"/>
		<path d="M356.807,215.83l-76.2-21.7l-35.9-56.3l0,0c-0.4-0.6-0.8-1.1-1.2-1.5c-3.8-3.8-5.7-5.6-9.9-8.7
			c-16.1-11.9-35.9-19.9-35.9-19.9l-15.1,47.7l-8.8-25c15.8-22.1-1.9-22.7-4.2-22.7c-2.4,0-20.1,0.6-4.2,22.7l-8.8,25l-15.1-47.7
			c0,0-19.8,8-35.9,19.9c-4.2,3.1-6.1,5-9.9,8.7c-8.9,8.9-5.2,60.7,0,79.7s20.3,46.1,20.3,46.1c3,6.9,5,14.3,5.7,21.8l19.3,190
			c0.6,6,5.7,10.6,11.8,10.6h16.8h16.7c6.1,0,11.2-4.6,11.8-10.6l14.5-142l0.3-3.3l4.6-44.7l0,0l9.3-91c0.1-1.4,1.9-1.8,2.7-0.7
			l18.5,26.4c3.1,4.4,7.7,7.4,12.9,8.4l89.1,17.4c7.5,1.5,14.9-3.1,17-10.5C369.107,226.13,364.607,218.03,356.807,215.83z"/>
		<path d="M377.107,122.63c-5.5-2.9-11.3-5.1-17-7.4c-3.3-1.3-6.5-2.9-9.4-5.1c-5.6-4.3-4.6-11.5,1.8-14.4c1.8-0.8,3.7-1.1,5.7-1.2
			c7.5-0.5,14.6,0.7,21.4,3.9c3.4,1.6,4.5,1.1,5.6-2.5c1.1-3.7,2.1-7.5,3.1-11.3c0.7-2.5-0.2-4.2-2.6-5.2c-4.4-1.8-8.8-3.2-13.5-3.8
			c-6.1-0.9-6.1-0.9-6.2-7c-0.2-8.7-0.2-8.7-8.8-8.5c-1.3,0-2.5,0-3.8,0.1c-4.1,0.2-4.7,0.9-4.8,5c0,1.8,0,3.7,0.1,5.5
			c0.1,5.4,0,5.4-5.1,7.3c-12.5,4.8-20.1,13.4-20.8,27.2c-0.6,12.2,5.9,20.3,16,26.1c6.2,3.6,13,5.7,19.6,8.4c2.6,1.1,5,2.3,7.2,4.1
			c6.3,5.1,5.3,13.7-2.1,17.1c-4,1.8-8.1,2.3-12.5,1.8c-6.7-0.7-13.1-2.4-19.1-5.4c-3.5-1.8-4.6-1.3-5.7,2.5c-1,3.3-1.8,6.6-2.7,10
			c-1.2,4.5-0.7,5.5,3.6,7.5c5.5,2.5,11.3,3.8,17.2,4.7c4.6,0.7,4.8,0.9,4.9,5.7c0.1,2.2,0.1,4.4,0.2,6.5c0.1,2.7,1.4,4.3,4.2,4.3
			c3.2,0,6.4,0,9.6-0.2c2.6-0.1,4-1.5,3.9-4.2c0-3,0.1-6-0.1-8.9c-0.2-3,1.1-4.6,4-5.4c6.7-1.9,12.4-5.6,16.7-11
			C399.607,153.63,394.607,131.93,377.107,122.63z"/>
	</g>
</g>
<g>
</g>
<g>
</g>
<g>
</g>
<g>
</g>
<g>
</g>
<g>
</g>
<g>
</g>
<g>
</g>
<g>
</g>
<g>
</g>
<g>
</g>
<g>
</g>
<g>
</g>
<g>
</g>
<g>
</g>
</svg>
