<?xml version="1.0" standalone="no"?>
<!DOCTYPE svg PUBLIC "-//W3C//DTD SVG 20010904//EN"
 "http://www.w3.org/TR/2001/REC-SVG-20010904/DTD/svg10.dtd">
<svg version="1.0" xmlns="http://www.w3.org/2000/svg"
 width="640.000000pt" height="1280.000000pt" viewBox="0 0 640.000000 1280.000000"
 preserveAspectRatio="xMidYMid meet">
<metadata>
Created by potrace 1.15, written by Peter Selinger 2001-2017
</metadata>
<g transform="translate(0.000000,1280.000000) scale(0.100000,-0.100000)"
fill="#000000" stroke="none">
<path d="M3540 12794 c-331 -30 -767 -119 -975 -199 -264 -103 -527 -308 -698
-546 -103 -144 -326 -593 -509 -1029 -929 -2208 -1174 -4652 -702 -6999 211
-1047 553 -2038 1039 -3011 123 -246 201 -365 315 -484 243 -253 501 -375 975
-460 277 -50 382 -60 685 -60 288 0 365 5 610 45 280 45 697 237 1075 494 139
95 549 505 591 592 38 78 40 184 4 257 -17 36 -246 281 -888 950 -1132 1180
-1134 1181 -1200 1206 -66 25 -137 25 -200 2 -26 -10 -151 -89 -278 -174 -126
-85 -244 -163 -262 -172 -116 -59 -274 -22 -346 83 -61 87 -56 -159 -54 3161
l3 3035 21 46 c26 55 77 108 130 135 30 14 60 19 129 19 l90 0 430 -236 c237
-130 445 -241 464 -247 87 -30 198 -4 266 62 30 29 264 412 802 1311 418 699
766 1288 773 1309 26 81 -13 213 -82 271 -51 43 -266 174 -400 244 -382 200
-782 325 -1204 376 -124 15 -511 27 -604 19z"/>
</g>
</svg>
