<?xml version="1.0" standalone="no"?>
<!DOCTYPE svg PUBLIC "-//W3C//DTD SVG 20010904//EN"
 "http://www.w3.org/TR/2001/REC-SVG-20010904/DTD/svg10.dtd">
<svg version="1.0" xmlns="http://www.w3.org/2000/svg"
 width="1280.000000pt" height="1280.000000pt" viewBox="0 0 1280.000000 1280.000000"
 preserveAspectRatio="xMidYMid meet">
<metadata>
Created by potrace 1.15, written by Peter Selinger 2001-2017
</metadata>
<g transform="translate(0.000000,1280.000000) scale(0.100000,-0.100000)"
fill="#9c27b0" stroke="none">
<path d="M4950 10643 c-14 -2 -54 -10 -90 -18 -36 -7 -101 -17 -145 -20 -44
-4 -102 -16 -130 -25 -27 -10 -77 -21 -110 -25 -33 -4 -76 -14 -95 -22 -19 -8
-66 -21 -104 -29 -38 -7 -78 -20 -90 -28 -12 -7 -42 -17 -66 -21 -25 -4 -58
-15 -75 -25 -16 -10 -49 -21 -72 -25 -24 -4 -45 -10 -47 -14 -9 -14 159 1 334
29 96 16 254 36 350 45 96 8 191 17 210 20 64 10 9 -12 -141 -54 l-147 -42
-318 -9 c-332 -10 -392 -18 -458 -59 l-31 -20 160 5 c88 2 185 6 215 8 112 8
12 -14 -230 -49 -264 -39 -294 -45 -286 -53 3 -2 -1 -14 -9 -26 -21 -29 -19
-33 18 -30 l32 3 -33 -8 c-42 -11 -39 -7 -47 -64 -7 -47 -7 -48 16 -43 37 9
827 126 841 125 35 -2 -446 -92 -642 -119 -254 -36 -253 -35 -264 -121 -4 -29
-18 -79 -32 -112 -40 -101 -44 -97 109 -98 145 -2 144 -3 -23 -19 l-115 -12
-17 -36 c-10 -21 -22 -63 -27 -94 -6 -32 -17 -68 -26 -82 -9 -13 -18 -48 -22
-77 -3 -30 -14 -71 -25 -91 -10 -21 -21 -59 -25 -85 -3 -27 -14 -66 -24 -89
-10 -22 -22 -68 -28 -102 -5 -33 -16 -71 -25 -84 -8 -13 -18 -41 -22 -62 l-7
-39 124 7 c68 3 156 9 194 12 114 10 70 -3 -70 -20 -71 -9 -157 -21 -190 -27
-59 -10 -61 -11 -82 -57 -12 -26 -18 -48 -14 -50 5 -2 161 24 347 58 331 59
774 123 944 135 84 6 85 6 50 -11 -84 -39 -168 -56 -743 -150 l-608 -99 -20
-45 c-11 -25 -24 -68 -29 -97 -5 -29 -14 -61 -20 -73 -8 -15 -8 -20 2 -20 7 0
4 -6 -6 -13 -10 -8 -20 -34 -25 -67 -4 -30 -14 -68 -23 -85 -8 -16 -18 -43
-22 -58 l-7 -28 68 5 68 5 -67 -11 c-64 -10 -67 -13 -74 -42 -3 -17 -13 -44
-21 -59 -8 -16 -19 -56 -24 -88 -5 -33 -18 -77 -29 -97 -11 -20 -20 -53 -20
-72 0 -19 -9 -54 -20 -78 -10 -23 -24 -70 -30 -104 -7 -35 -16 -70 -21 -80 -7
-13 -4 -17 19 -21 25 -4 25 -4 -5 -6 -18 0 -33 -2 -33 -4 0 -26 -25 -127 -36
-144 -16 -26 -31 -109 -18 -100 5 3 99 14 209 25 222 23 365 34 350 27 -5 -2
-136 -25 -290 -50 -163 -27 -282 -50 -287 -58 -4 -6 -17 -36 -28 -66 -30 -79
-16 -101 39 -62 15 11 40 23 57 27 16 4 43 14 59 23 l30 16 -70 5 -70 5 85 13
c142 22 272 51 295 66 12 8 48 19 80 25 32 6 68 17 80 25 11 7 48 19 80 25 33
7 80 20 105 30 25 10 75 22 112 26 37 3 88 15 115 24 26 10 89 21 138 25 50 4
122 15 160 24 105 25 696 25 805 -1 41 -9 114 -21 162 -27 48 -5 97 -14 108
-20 11 -6 55 -18 98 -26 42 -8 91 -21 107 -30 28 -15 41 -15 150 0 68 8 124
11 129 6 5 -5 -31 -11 -83 -15 -50 -4 -91 -10 -91 -14 0 -10 91 -48 131 -55
21 -4 42 -13 49 -21 6 -7 26 -17 43 -21 18 -3 50 -17 73 -30 22 -13 48 -24 56
-24 8 0 27 -9 40 -20 25 -19 26 -19 154 0 146 21 332 36 322 26 -6 -8 -212
-39 -331 -51 l-69 -7 33 -24 c18 -13 42 -27 53 -30 12 -3 32 -16 44 -28 20
-17 36 -21 95 -20 40 0 103 6 141 14 l68 13 23 51 c13 28 26 74 30 103 4 29
15 69 26 90 24 47 24 73 2 74 -14 0 -13 2 5 9 13 6 22 18 22 30 0 11 9 38 20
60 28 55 27 90 -4 90 -13 0 -165 -20 -337 -45 -173 -25 -325 -44 -339 -43 -55
7 609 158 695 158 33 0 44 19 59 99 8 39 19 77 25 85 6 8 17 42 23 77 6 35 17
76 24 91 8 15 14 29 14 33 0 17 -510 -5 -662 -30 -88 -14 -288 -21 -276 -10
10 11 423 65 608 80 102 8 203 17 225 20 22 3 59 8 83 11 31 4 42 10 42 23 0
9 7 26 15 37 8 10 15 26 15 34 0 13 -37 14 -322 2 -178 -6 -343 -11 -368 -10
-26 2 112 26 330 58 l375 55 22 40 c12 21 25 62 28 89 4 28 15 69 25 91 10 22
21 62 25 89 5 27 16 63 25 80 10 17 23 60 29 95 6 35 15 69 21 76 6 7 13 26
16 42 3 15 7 36 10 46 7 22 3 22 -159 -4 -310 -48 -316 -48 -450 -42 l-132 7
80 13 c44 7 211 26 370 43 268 29 291 32 307 53 15 20 41 107 34 115 -3 2
-671 -70 -756 -83 -27 -4 -31 -3 -15 5 28 14 418 77 555 89 238 23 218 18 241
62 11 22 23 61 26 87 l5 47 -63 -3 c-60 -3 -63 -2 -43 12 28 20 35 50 18 75
-13 19 -11 20 50 26 34 4 67 10 72 14 5 3 14 24 21 46 6 22 18 58 26 80 8 22
17 58 19 80 l6 41 -94 -17 c-52 -9 -97 -13 -100 -8 -3 5 -2 9 3 9 46 1 199 32
208 42 7 7 18 42 24 77 7 34 15 69 18 77 3 9 0 12 -8 9 -8 -2 -232 -32 -498
-65 -580 -73 -977 -102 -998 -73 -7 9 -11 18 -9 21 5 5 758 82 1191 122 187
18 341 33 343 35 2 1 5 18 8 37 l6 34 -78 -8 c-120 -13 -133 -5 -17 11 84 11
103 16 108 32 8 25 -19 59 -77 97 l-48 31 -158 -25 c-86 -13 -164 -23 -172
-21 -8 1 56 13 143 26 86 14 157 27 157 30 0 12 -163 111 -248 151 l-43 20
-347 -50 c-191 -27 -581 -85 -866 -130 -286 -44 -521 -78 -523 -76 -12 11 447
86 1022 166 363 51 669 96 680 100 17 6 14 9 -17 18 -21 6 -50 19 -65 30 -15
11 -44 23 -63 27 -19 4 -47 17 -62 28 -24 18 -37 19 -115 15 -86 -5 -87 -5
-33 6 l55 12 -30 16 c-59 30 -92 28 -433 -22 -260 -39 -377 -52 -512 -57 -96
-3 -173 -4 -170 -1 3 3 209 36 458 74 410 62 498 81 382 83 -20 1 -41 6 -48
13 -6 6 -24 11 -40 10 -29 -1 -1016 -148 -1062 -158 -14 -3 -22 -3 -19 0 3 4
91 31 194 61 201 59 456 115 521 115 22 0 51 8 64 17 l25 18 -40 7 c-41 7
-671 8 -715 1z m830 -299 c-42 -10 -1335 -174 -1344 -170 -6 2 -4 5 4 5 8 1
258 37 555 80 297 44 563 82 590 84 66 5 214 6 195 1z m-800 -20 c-8 -2 -199
-31 -425 -64 -225 -33 -421 -63 -435 -65 -65 -13 17 16 140 49 194 52 423 84
595 84 77 0 133 -2 125 -4z m1635 -250 c-38 -7 -81 -12 -95 -12 -33 1 97 26
135 26 17 0 -1 -6 -40 -14z m-636 -8 c-8 -9 -354 -66 -549 -91 -340 -44 -953
-95 -968 -81 -3 3 2 6 10 6 9 0 213 27 454 59 499 68 582 77 819 95 203 16
240 17 234 12z m476 -16 c-177 -37 -593 -100 -556 -83 20 8 531 91 566 91 25
0 24 -1 -10 -8z m-2345 -96 c-117 -28 -361 -65 -417 -62 -47 2 -10 10 187 39
262 39 318 45 230 23z m2813 -1 c-7 -2 -21 -2 -30 0 -10 3 -4 5 12 5 17 0 24
-2 18 -5z m-2433 -133 c-50 -8 -621 -22 -605 -15 6 3 42 9 80 14 86 10 589 12
525 1z m1020 -107 c18 -5 -10 -12 -95 -25 -114 -17 -386 -41 -392 -34 -7 6
363 64 412 65 28 0 61 -2 75 -6z m1453 -190 c-7 -2 -19 -2 -25 0 -7 3 -2 5 12
5 14 0 19 -2 13 -5z m-44 -7 c-2 -2 -31 -6 -64 -9 -39 -4 -50 -3 -30 2 31 9
102 14 94 7z m-142 -22 c-3 -3 -12 -4 -19 -1 -8 3 -5 6 6 6 11 1 17 -2 13 -5z
m-509 -81 c-10 -2 -26 -2 -35 0 -10 3 -2 5 17 5 19 0 27 -2 18 -5z m-1353 -23
c-55 -10 -175 -25 -265 -34 -91 -10 -228 -26 -305 -36 -108 -15 -523 -60 -553
-60 -3 0 -3 2 -1 5 8 8 190 32 519 70 173 19 385 44 470 54 199 24 265 24 135
1z m1282 14 c-3 -3 -12 -4 -19 -1 -8 3 -5 6 6 6 11 1 17 -2 13 -5z m539 -63
c-4 -5 -36 -21 -74 -35 -63 -24 -85 -26 -417 -41 -568 -25 -584 -25 -540 -16
35 8 583 84 675 94 77 8 361 7 356 -2z m-366 -142 c-14 -6 -268 -35 -565 -64
-297 -30 -697 -75 -890 -100 -221 -29 -424 -49 -550 -56 -110 -5 -353 -18
-540 -29 -409 -25 -563 -32 -550 -25 24 11 819 119 1220 165 346 40 510 54
770 66 182 8 499 23 705 33 206 10 386 19 400 19 l25 1 -25 -10z m-1280 -255
c-8 -2 -98 -13 -200 -24 -102 -11 -198 -23 -215 -26 l-30 -5 30 18 c22 13 71
21 180 29 148 11 264 15 235 8z m775 -160 c-224 -39 -795 -105 -980 -114 -110
-5 -201 -7 -204 -4 -2 2 1 4 7 4 11 0 839 114 892 123 14 2 102 4 195 4 l170
1 -80 -14z m649 8 c4 -7 -62 -18 -429 -71 -125 -18 -342 -34 -332 -25 3 3 144
27 313 54 295 46 437 59 448 42z m-1389 -202 c-120 -25 -693 -72 -648 -54 33
14 551 72 638 72 l100 0 -90 -18z m1398 13 c-7 -2 -21 -2 -30 0 -10 3 -4 5 12
5 17 0 24 -2 18 -5z m-58 -8 c-32 -13 -382 -65 -427 -64 -71 2 -48 7 177 39
171 25 277 35 250 25z m-2250 -22 c-16 -2 -90 -13 -163 -24 -74 -10 -148 -19
-165 -18 -94 2 170 47 273 47 47 -1 72 -3 55 -5z m-657 -108 c-7 -7 -237 -55
-258 -54 -18 1 45 25 115 44 49 13 154 20 143 10z m1359 -5 c-15 -5 -58 -11
-95 -14 l-67 -5 60 13 c33 8 76 14 95 14 34 0 34 0 7 -8z m722 5 c-6 -5 -256
-35 -284 -34 -36 3 178 37 234 38 30 1 52 -1 50 -4z m-892 -31 c-3 -3 -12 -4
-19 -1 -8 3 -5 6 6 6 11 1 17 -2 13 -5z m-294 -41 c-7 -2 -19 -2 -25 0 -7 3
-2 5 12 5 14 0 19 -2 13 -5z m-770 -10 c-7 -2 -19 -2 -25 0 -7 3 -2 5 12 5 14
0 19 -2 13 -5z m695 0 c-10 -2 -26 -2 -35 0 -10 3 -2 5 17 5 19 0 27 -2 18 -5z
m-755 -10 c-7 -2 -19 -2 -25 0 -7 3 -2 5 12 5 14 0 19 -2 13 -5z m685 0 c-10
-2 -28 -2 -40 0 -13 2 -5 4 17 4 22 1 32 -1 23 -4z m-745 -10 c-7 -2 -21 -2
-30 0 -10 3 -4 5 12 5 17 0 24 -2 18 -5z m665 0 c-10 -2 -26 -2 -35 0 -10 3
-2 5 17 5 19 0 27 -2 18 -5z m-723 -8 c-23 -8 -357 -56 -367 -53 -14 5 304 56
347 56 17 0 26 -1 20 -3z m653 -2 c-10 -2 -26 -2 -35 0 -10 3 -2 5 17 5 19 0
27 -2 18 -5z m-70 -10 c-10 -2 -26 -2 -35 0 -10 3 -2 5 17 5 19 0 27 -2 18 -5z
m1887 -4 c-34 -9 -696 -104 -790 -113 -105 -9 -39 2 330 58 198 30 371 57 385
59 14 2 43 4 65 5 39 0 39 0 10 -9z m-1962 -6 c-7 -2 -19 -2 -25 0 -7 3 -2 5
12 5 14 0 19 -2 13 -5z m-900 -40 c-7 -2 -19 -2 -25 0 -7 3 -2 5 12 5 14 0 19
-2 13 -5z m637 -119 c-80 -16 -337 -47 -351 -42 -13 4 351 56 391 56 14 0 -4
-6 -40 -14z m1845 -134 c-3 -5 -18 -10 -33 -10 -15 0 -144 -18 -287 -39 -217
-33 -297 -41 -485 -47 -124 -3 -223 -4 -220 -1 7 7 565 96 630 100 140 8 401
6 395 -3z m-47 -155 c-14 -14 -250 -57 -439 -79 -172 -21 -263 -26 -444 -26
-126 0 -226 3 -223 6 5 4 513 80 648 97 50 6 464 8 458 2z m551 1 c-2 -2 -58
-12 -124 -20 -66 -9 -181 -27 -255 -40 -158 -28 -247 -40 -239 -31 4 3 87 25
185 50 163 40 190 44 308 44 71 1 127 -1 125 -3z m-1649 -22 c-71 -18 -930
-139 -1095 -154 -115 -11 -228 -22 -250 -25 -80 -9 1 12 165 43 143 27 730
125 815 135 39 5 385 6 365 1z m-1085 -45 c-22 -4 -56 -7 -75 -7 -32 1 -31 2
10 8 25 4 59 7 75 7 25 1 23 -1 -10 -8z m-132 -16 c-13 -2 -35 -2 -50 0 -16 2
-5 4 22 4 28 0 40 -2 28 -4z m-95 -10 c-10 -2 -28 -2 -40 0 -13 2 -5 4 17 4
22 1 32 -1 23 -4z m-95 -10 c-13 -2 -33 -2 -45 0 -13 2 -3 4 22 4 25 0 35 -2
23 -4z m-100 -10 c-7 -2 -19 -2 -25 0 -7 3 -2 5 12 5 14 0 19 -2 13 -5z m1086
-117 c-7 -7 -271 -46 -374 -56 -64 -6 -138 -5 -205 1 -103 10 -143 19 -82 19
26 0 365 22 522 33 75 6 144 7 139 3z m1978 -53 c-9 -8 -395 -106 -530 -134
-93 -19 -122 -21 -337 -15 -195 5 -381 19 -319 25 9 0 155 17 325 37 170 19
433 48 584 64 151 15 277 28 279 29 2 1 1 -2 -2 -6z m-1548 -17 c-8 -7 -318
-48 -331 -44 -14 5 148 36 217 41 67 6 119 7 114 3z m1786 -296 c-29 -13 -104
-13 -85 0 8 5 35 9 60 9 34 0 40 -2 25 -9z"/>
<path d="M7624 9683 c-4 -15 -15 -44 -25 -63 -9 -19 -20 -57 -24 -85 -4 -27
-15 -65 -25 -85 -10 -19 -21 -60 -25 -90 -4 -30 -13 -65 -21 -77 -8 -13 -21
-55 -28 -95 -8 -40 -21 -86 -30 -103 -8 -16 -16 -43 -18 -60 l-3 -30 80 -6 80
-5 -80 -2 -80 -2 -17 -42 c-10 -23 -16 -43 -14 -45 2 -2 57 0 122 6 174 15
420 25 413 17 -8 -9 -153 -29 -369 -52 -91 -9 -170 -21 -176 -26 -7 -5 -14
-22 -16 -38 l-5 -30 445 0 c245 0 443 -3 440 -6 -3 -3 -98 -21 -210 -41 -188
-33 -221 -36 -453 -40 -261 -5 -265 -6 -265 -51 0 -12 -9 -39 -20 -60 -20 -37
-20 -37 0 -40 11 -2 66 4 123 12 132 20 307 31 287 18 -8 -5 -91 -21 -185 -36
-267 -42 -248 -37 -255 -71 -4 -17 -14 -43 -22 -60 -13 -24 -40 -155 -34 -162
2 -2 150 14 354 38 96 11 176 18 178 16 3 -3 -41 -13 -97 -23 -105 -18 -147
-40 -135 -70 5 -12 -22 -14 -164 -14 l-169 0 -7 -47 c-4 -27 -15 -64 -24 -83
-10 -20 -21 -54 -25 -75 -4 -22 -18 -72 -31 -112 -13 -39 -24 -82 -24 -95 0
-13 -9 -43 -20 -66 -11 -24 -24 -70 -29 -102 -5 -32 -16 -69 -25 -82 -8 -13
-20 -52 -26 -88 -6 -35 -16 -73 -22 -83 -5 -10 -7 -21 -4 -24 3 -3 45 -9 93
-12 54 -4 88 -11 90 -18 3 -9 -23 -13 -99 -15 l-103 -3 -3 -32 -3 -32 153 -4
153 -3 -155 -2 -156 -2 -17 -29 c-9 -16 -17 -32 -17 -35 0 -3 96 -7 213 -10
116 -2 235 -7 262 -11 28 -4 120 -3 205 4 134 9 751 22 710 14 -8 -1 -112 -9
-230 -18 -118 -8 -361 -26 -540 -40 -179 -14 -393 -25 -477 -25 l-152 0 -20
-45 c-11 -25 -25 -73 -31 -107 -6 -33 -18 -70 -25 -82 -8 -12 -17 -40 -21 -63
l-6 -42 98 -3 99 -3 -103 -24 c-118 -28 -132 -40 -139 -119 -5 -50 -3 -52 86
-101 15 -7 36 -23 48 -34 12 -11 31 -25 42 -31 11 -6 46 -29 78 -51 96 -66
103 -68 195 -62 53 4 76 3 63 -3 -11 -5 -49 -9 -85 -10 l-65 -2 34 -14 c18 -8
40 -21 47 -29 8 -7 24 -17 35 -20 12 -4 37 -18 56 -31 20 -13 42 -24 49 -24 7
0 30 -11 50 -25 20 -14 46 -25 56 -25 11 0 33 -9 48 -20 16 -11 43 -23 62 -27
18 -3 49 -14 68 -24 20 -10 58 -23 85 -28 28 -5 67 -17 88 -26 21 -8 75 -20
120 -26 45 -5 107 -18 137 -27 48 -15 106 -17 435 -17 351 0 388 2 485 22 58
12 141 24 184 28 44 3 95 13 115 21 20 8 72 20 115 25 43 6 95 17 115 25 20 9
64 20 99 25 35 5 80 17 100 28 20 10 59 21 87 25 27 3 65 14 85 25 19 10 56
21 82 24 26 4 64 16 85 27 21 11 47 20 58 20 11 0 47 12 80 25 33 14 67 25 76
25 23 0 35 18 47 70 11 44 37 128 68 220 9 25 21 72 28 105 8 33 20 74 29 90
8 17 18 49 22 73 l7 42 -166 0 c-104 0 -166 4 -166 10 0 6 -30 10 -71 10 -38
0 -68 4 -65 9 9 15 94 23 300 30 l199 6 13 60 c7 33 13 65 13 70 1 6 -32 9
-81 8 -75 -1 -78 0 -33 7 28 5 69 9 91 9 43 1 54 11 54 54 1 12 10 47 21 77
11 30 26 85 34 122 8 37 21 77 29 90 8 13 16 37 18 53 l3 30 -425 -1 c-234 -1
-783 -5 -1220 -9 -668 -5 -809 -4 -885 8 -81 13 40 15 1223 16 913 1 1312 4
1312 12 0 5 9 30 20 53 11 24 22 63 26 87 4 24 15 60 24 79 10 20 21 58 25 85
4 28 16 67 26 88 11 22 22 60 26 85 3 26 17 70 30 97 12 28 23 64 23 80 0 17
9 49 20 73 10 23 22 58 26 77 7 41 9 41 -102 20 -44 -8 -206 -30 -360 -50
-255 -32 -304 -35 -515 -34 l-234 1 110 14 c61 7 211 34 335 60 l225 47 276 4
275 5 17 39 c21 49 21 49 -5 50 -21 1 -20 2 5 11 20 7 27 16 27 36 0 15 9 47
20 71 30 64 28 66 -42 64 -73 -3 -67 3 12 12 55 6 56 6 67 48 6 23 18 60 26
83 9 22 18 58 21 80 2 21 14 57 25 79 12 21 21 53 21 70 1 16 7 47 14 68 l14
37 -172 1 -171 1 180 22 180 21 7 44 c4 24 16 62 27 85 11 22 22 60 26 84 l7
42 -39 0 c-21 0 -51 -7 -68 -16 -16 -9 -56 -22 -88 -30 -32 -8 -68 -20 -80
-28 -12 -8 -44 -17 -72 -21 -27 -4 -65 -15 -85 -25 -19 -10 -58 -21 -87 -25
-29 -4 -69 -15 -89 -25 -20 -11 -71 -24 -113 -31 -42 -6 -87 -17 -101 -24 -14
-6 -64 -17 -112 -24 -48 -6 -105 -18 -126 -25 -21 -8 -93 -19 -160 -25 -66 -6
-149 -19 -184 -28 -53 -14 -115 -17 -383 -17 -214 0 -337 4 -370 12 -50 12
-108 22 -242 42 -40 5 -268 11 -515 11 -244 1 -436 3 -428 5 37 9 431 34 542
35 68 0 132 4 143 9 19 7 19 8 -5 18 -14 5 -40 13 -59 17 -19 4 -54 18 -79 31
-25 13 -53 24 -62 24 -10 0 -23 7 -30 14 -6 8 -28 20 -48 27 -20 6 -44 18 -53
25 -8 8 -31 19 -50 25 -19 7 -47 23 -62 36 -16 12 -34 23 -41 23 -7 0 -21 10
-32 21 -18 20 -26 21 -114 16 l-95 -5 75 11 75 12 -28 20 c-15 11 -44 32 -64
48 -20 15 -40 27 -45 27 -10 0 -38 20 -101 71 -18 15 -42 29 -54 33 -19 6 -23
2 -29 -21z m1484 -768 c-3 -3 -96 -21 -207 -40 l-202 -35 -387 2 -387 3 260
36 c255 36 267 37 594 38 184 1 332 -1 329 -4z m590 0 c-3 -3 -97 -21 -209
-40 -142 -24 -233 -35 -299 -34 l-95 1 210 38 c137 25 243 38 304 39 52 1 92
-1 89 -4z m1297 -1 c-5 -2 -155 -20 -332 -39 -305 -33 -340 -35 -650 -34
l-328 1 135 24 c268 48 323 52 765 52 231 0 416 -1 410 -4z m-2186 -154 c-35
-10 -364 -43 -380 -38 -25 8 239 46 321 46 58 0 76 -2 59 -8z m-611 -195 c-6
-7 -268 -51 -348 -59 -84 -9 -48 2 116 33 137 27 245 39 232 26z m730 0 c-13
-13 -294 -57 -448 -70 -175 -15 -338 -19 -310 -8 8 4 101 23 205 44 175 34
205 37 374 38 101 1 182 -1 179 -4z m1712 -20 c-58 -8 -121 -13 -140 -13 -56
1 119 25 185 26 50 0 43 -2 -45 -13z m-192 -22 c-10 -2 -26 -2 -35 0 -10 3 -2
5 17 5 19 0 27 -2 18 -5z m-713 -24 c-53 -11 -262 -24 -254 -15 7 7 169 23
244 23 l50 1 -40 -9z m-1150 -89 c-30 -12 -325 -53 -332 -46 -4 3 0 6 8 6 8 0
70 11 139 24 126 25 226 33 185 16z m543 5 c-2 -3 -202 -34 -444 -70 -241 -36
-502 -76 -579 -90 -115 -21 -296 -34 -260 -19 6 2 159 24 340 49 182 25 449
65 595 89 240 40 362 54 348 41z m731 -60 c-42 -7 -179 -23 -305 -34 -126 -12
-258 -24 -294 -27 -105 -10 -66 2 105 31 174 29 314 42 470 42 l100 1 -76 -13z
m-936 -192 c-7 -2 -21 -2 -30 0 -10 3 -4 5 12 5 17 0 24 -2 18 -5z m-420 -130
c-51 -2 -135 -2 -185 0 -51 1 -10 3 92 3 102 0 143 -2 93 -3z m2025 0 c-60 -2
-156 -2 -215 0 -60 1 -11 3 107 3 118 0 167 -2 108 -3z m32 -80 c-138 -17
-1050 -28 -1010 -13 54 21 213 27 660 27 446 0 460 -1 350 -14z m-2855 -457
c56 -13 44 -14 -180 -14 -252 1 -266 3 -95 17 155 12 208 12 275 -3z m1888
-93 c-51 -2 -136 -2 -190 0 -54 1 -12 3 92 3 105 0 149 -2 98 -3z m-1130 -70
c-161 -2 -425 -2 -585 0 -161 1 -30 2 292 2 322 0 453 -1 293 -2z m1712 -213
l30 -7 -35 -6 c-19 -4 -119 -19 -222 -32 -169 -23 -217 -25 -515 -23 -305 1
-316 2 -158 9 251 11 481 28 650 48 167 20 206 22 250 11z m-1057 -147 c-32
-2 -86 -2 -120 0 -35 2 -9 3 57 3 66 0 94 -1 63 -3z m-353 -68 c-5 -3 -74 -11
-152 -20 -111 -12 -260 -15 -675 -14 -293 0 -528 3 -521 5 6 3 56 11 110 19
72 9 249 13 673 13 316 0 571 -1 565 -3z m1540 -232 c-16 -1 -316 -24 -665
-50 l-635 -47 -690 -2 c-379 -2 -685 -1 -680 1 6 2 73 11 150 20 77 8 196 27
265 42 69 14 143 29 165 33 22 4 508 7 1080 7 572 0 1027 -2 1010 -4z m-1355
-389 c-57 -10 -229 -13 -705 -13 -346 1 -625 3 -619 5 41 17 211 21 769 21
551 0 621 -1 555 -13z"/>
<path d="M6200 6943 c-61 -7 -67 -12 -33 -33 17 -10 34 -23 37 -29 14 -22 36
-10 51 25 8 20 15 38 15 40 0 4 -8 4 -70 -3z"/>
<path d="M3960 6870 c-75 -4 -160 -15 -190 -23 -30 -9 -101 -21 -158 -26 -56
-6 -115 -17 -130 -25 -15 -7 -56 -17 -92 -21 -36 -4 -84 -15 -108 -26 -23 -10
-67 -23 -98 -28 -64 -12 -112 -36 -54 -27 181 28 257 37 302 34 41 -2 -5 -12
-196 -41 -262 -41 -401 -71 -426 -92 -8 -7 -30 -16 -49 -20 -19 -4 -54 -18
-79 -31 -25 -13 -52 -24 -60 -24 -22 0 -119 -58 -126 -76 -16 -41 -10 -44 102
-45 l107 -2 -80 -14 c-44 -7 -95 -16 -112 -19 -20 -3 -33 -11 -33 -20 0 -8 -7
-25 -15 -38 -9 -13 -22 -56 -31 -95 -8 -40 -21 -82 -28 -94 -8 -12 -17 -44
-20 -72 -4 -27 -17 -74 -28 -102 -12 -29 -20 -54 -17 -56 2 -2 65 2 139 9 74
7 148 13 164 13 60 2 17 -7 -109 -23 -209 -26 -205 -25 -205 -49 0 -12 -7 -35
-15 -51 -8 -15 -15 -30 -15 -32 0 -2 102 -5 228 -6 l227 -3 -145 -24 c-80 -13
-187 -26 -238 -29 -86 -4 -92 -6 -92 -26 0 -11 -9 -41 -20 -65 -11 -24 -24
-67 -28 -97 l-9 -53 121 -3 121 -3 -105 -13 c-153 -20 -163 -23 -172 -57 -4
-16 -6 -31 -4 -32 2 -2 128 8 280 22 153 15 285 25 294 23 14 -3 -544 -69
-570 -68 -5 0 -8 -5 -8 -11 0 -5 -9 -31 -21 -55 -11 -25 -24 -71 -29 -101 -5
-30 -14 -61 -20 -68 -6 -7 -17 -46 -26 -86 -8 -41 -21 -83 -28 -94 -7 -11 -17
-35 -20 -53 l-8 -32 66 0 c75 0 607 -48 615 -55 2 -3 -152 -5 -343 -5 l-347 0
-19 -42 c-11 -24 -20 -55 -20 -70 l0 -28 443 -1 c417 -1 438 -2 377 -16 -50
-12 -155 -17 -447 -20 -378 -4 -383 -5 -398 -26 -8 -12 -15 -25 -15 -29 0 -5
80 -8 177 -8 97 0 174 -2 172 -5 -9 -8 -253 -45 -302 -45 -42 0 -49 -3 -59
-27 -6 -16 -17 -43 -25 -61 -8 -18 -18 -57 -23 -86 -5 -30 -16 -68 -25 -85 -8
-17 -18 -51 -22 -76 l-6 -45 359 -2 359 -3 -155 -14 c-85 -7 -251 -16 -368
-18 -245 -6 -222 4 -246 -113 l-13 -65 191 -5 191 -6 -197 -2 -196 -2 -11 -31
c-6 -18 -11 -45 -11 -60 l0 -29 188 -1 c225 -1 202 -16 -40 -26 -178 -7 -185
-10 -195 -82 l-6 -41 219 -3 219 -2 -218 -3 c-197 -2 -218 -4 -224 -19 -3 -10
-14 -36 -24 -59 -11 -22 -19 -52 -19 -67 0 -26 2 -27 56 -27 63 0 152 23 198
51 17 10 40 19 51 19 11 0 44 11 73 25 30 14 65 25 78 25 14 0 43 9 65 20 22
12 65 26 97 31 31 6 69 18 85 26 16 8 56 19 90 24 34 5 89 18 122 29 33 11 96
23 140 27 l80 8 -135 5 c-74 3 -130 8 -125 11 6 4 72 12 147 19 100 9 264 11
600 7 428 -5 468 -7 528 -26 36 -11 99 -24 140 -27 41 -4 91 -15 110 -24 20
-10 58 -21 85 -25 28 -4 76 -18 107 -31 32 -13 67 -24 79 -24 12 0 36 -9 53
-19 17 -11 51 -25 76 -31 25 -7 52 -18 60 -25 8 -7 34 -18 56 -24 23 -6 47
-18 54 -25 6 -8 24 -17 39 -21 16 -3 43 -17 62 -31 18 -13 39 -24 47 -24 9 0
30 -11 48 -25 18 -14 36 -25 41 -25 4 0 26 -13 49 -28 23 -15 60 -38 83 -52
24 -14 56 -36 73 -50 24 -18 41 -24 75 -22 52 2 63 7 63 29 0 9 9 35 19 57 11
23 22 62 25 88 3 25 14 63 25 85 10 21 22 61 26 88 3 28 15 68 25 90 10 22 20
55 24 73 7 39 9 39 -168 12 -108 -17 -376 -28 -341 -14 21 8 414 54 463 54 51
0 52 1 71 43 10 23 21 56 23 72 l3 30 -170 -2 c-93 -1 -215 -7 -270 -12 -55
-6 -174 -13 -265 -16 -347 -10 -16 23 603 61 l108 6 18 37 c10 20 22 58 26 86
4 27 15 66 25 86 11 20 22 60 26 90 4 30 15 70 25 89 10 19 19 46 21 59 3 24
2 24 -82 22 -47 -1 -161 -6 -255 -11 -184 -10 -281 -12 -274 -6 2 2 101 9 219
16 118 6 256 13 305 16 l90 6 22 51 c12 29 27 78 32 111 6 32 16 65 23 73 11
14 40 144 33 151 -2 2 -77 -6 -168 -17 -95 -12 -214 -21 -283 -20 -65 1 -112
3 -104 5 8 2 141 15 295 29 186 17 282 29 287 38 4 6 8 22 8 34 0 20 -5 22
-72 26 l-73 3 78 2 c73 2 77 3 77 25 0 12 9 39 20 59 10 20 24 66 31 102 6 36
15 69 20 72 19 11 8 33 -18 37 -27 4 -27 4 3 6 34 1 44 15 44 59 0 15 8 43 18
62 11 19 22 47 25 62 l7 27 -132 -5 c-157 -5 -135 12 29 22 l101 7 15 38 15
39 -89 0 c-53 0 -89 4 -89 10 0 6 38 10 94 10 l94 0 6 28 c3 15 8 44 12 65 3
20 10 40 15 43 5 3 9 10 9 16 0 8 -64 9 -212 5 -120 -3 -193 -2 -168 2 25 5
122 12 217 16 190 8 175 2 188 80 4 22 13 49 20 61 8 12 19 50 25 85 6 35 18
76 26 92 9 16 19 53 24 83 5 30 19 75 31 99 29 57 21 89 -29 114 -21 11 -44
27 -51 35 -8 9 -18 16 -23 16 -13 0 -125 69 -139 86 -6 8 -20 14 -29 14 -10 0
-32 11 -48 25 -17 14 -36 25 -45 25 -8 0 -30 11 -49 23 -19 13 -47 27 -62 31
-15 4 -41 17 -57 28 -29 22 -32 22 -162 10 -290 -28 -447 -41 -552 -46 l-110
-5 160 29 c88 16 239 38 335 50 96 12 176 23 178 25 2 2 -11 6 -30 10 -18 4
-43 15 -56 23 -13 8 -38 15 -55 14 -60 -2 -1401 -172 -1636 -206 -211 -32
-236 -33 -256 -20 -19 13 -64 14 -274 12 -138 -2 -251 0 -251 3 0 3 51 13 113
23 76 11 220 20 447 26 369 10 436 18 760 92 159 36 205 42 505 63 182 14 373
25 425 25 l95 1 -35 18 c-19 10 -60 22 -90 26 -30 4 -68 14 -84 22 -15 8 -78
21 -140 28 -61 7 -124 18 -140 24 -65 26 -431 36 -716 21z m-155 -231 c-45
-10 -316 -22 -299 -14 16 8 193 22 274 22 61 1 62 0 25 -8z m1953 -236 c-64
-2 -172 -2 -240 0 -68 1 -15 3 117 3 132 0 187 -2 123 -3z m-495 -80 c-62 -2
-165 -2 -230 0 -65 1 -14 3 112 3 127 0 180 -2 118 -3z m-2215 -150 c-42 -2
-114 -2 -160 0 -46 1 -11 3 77 3 88 0 125 -2 83 -3z m1735 0 c-156 -2 -410 -2
-565 0 -156 1 -29 2 282 2 311 0 438 -1 283 -2z m-1396 -100 c-137 -2 -357 -2
-490 0 -133 1 -21 2 248 2 270 0 378 -1 242 -2z m1613 -3 c-77 -11 -390 -11
-365 0 11 5 110 8 220 8 136 -1 182 -3 145 -8z m-475 -126 c-11 -2 -306 -31
-656 -64 -623 -59 -643 -60 -935 -59 -350 2 -346 4 96 63 255 34 281 35 680
41 228 3 451 10 495 14 79 8 359 12 320 5z m484 2 c-9 -9 -400 -75 -478 -81
-46 -3 -129 -15 -185 -25 -73 -15 -138 -20 -236 -19 -156 2 -163 1 235 40 116
11 302 35 415 54 198 32 258 40 249 31z m651 -16 c-108 -19 -548 -55 -591 -48
-13 1 50 17 141 34 150 29 183 32 360 32 l195 0 -105 -18z m-1950 -186 c-88
-22 -873 -67 -831 -48 7 4 74 17 150 29 119 20 171 23 416 23 154 0 273 -2
265 -4z m632 -231 c-40 -2 -103 -2 -140 0 -37 2 -4 3 73 3 77 0 107 -2 67 -3z
m-447 -70 c-63 -8 -388 -64 -568 -98 -172 -32 -204 -35 -374 -35 -103 0 -184
2 -181 5 2 3 76 14 164 25 87 12 269 40 404 64 228 41 257 44 415 44 94 -1
157 -3 140 -5z m1235 3 c0 -1 -75 -8 -167 -15 -207 -15 -340 -31 -694 -81
-228 -33 -302 -40 -430 -40 -86 0 -147 4 -139 9 35 19 354 74 585 101 217 24
289 28 548 29 163 1 297 -1 297 -3z m-2293 -52 c-3 -3 -12 -4 -19 -1 -8 3 -5
6 6 6 11 1 17 -2 13 -5z m2181 -151 c-53 -2 -143 -2 -200 0 -57 1 -13 3 97 3
110 0 156 -2 103 -3z m252 -185 c-41 -5 -417 -10 -835 -13 -642 -3 -751 -2
-700 9 47 11 234 13 835 13 492 0 748 -3 700 -9z m-2837 -95 c-45 -2 -122 -2
-170 0 -48 1 -11 3 82 3 94 0 133 -2 88 -3z m2042 -59 c-48 -11 -244 -13
-1015 -12 l-955 2 797 6 c438 3 800 8 804 13 4 4 102 7 218 6 202 -1 208 -2
151 -15z m-565 -105 c-58 -9 -166 -23 -240 -30 -124 -11 -158 -10 -430 15
-162 15 -302 28 -310 30 -8 2 233 4 535 4 l550 0 -105 -19z m960 15 c-38 -9
-601 -55 -636 -52 -28 2 3 10 111 29 128 23 179 27 345 27 107 0 188 -2 180
-4z m-760 -211 c-48 -11 -154 -16 -400 -20 -184 -3 -332 -2 -328 2 20 21 194
33 483 33 297 0 307 -1 245 -15z m970 -13 c27 -4 -86 -8 -284 -9 -181 0 -327
2 -323 5 22 23 487 26 607 4z m-1815 -125 c-17 -7 -425 -74 -548 -90 -86 -11
-202 -15 -430 -14 l-312 1 95 23 c99 25 214 36 560 55 113 7 259 15 325 19
129 9 326 12 310 6z m1855 -7 c-249 -23 -890 -79 -1015 -88 -136 -10 -925 -12
-875 -3 14 3 232 27 485 53 l460 48 520 -1 c374 0 493 -2 425 -9z m-991 -372
c-15 -15 -390 -37 -769 -46 -245 -6 -534 -15 -642 -21 -109 -6 -203 -9 -210
-6 -7 3 7 6 32 7 25 1 227 16 450 34 354 29 451 34 774 35 203 0 367 -1 365
-3z m890 -60 c-2 -2 -74 -13 -159 -25 -113 -16 -192 -21 -290 -19 l-135 3 85
14 c115 19 514 40 499 27z m-1021 -132 c-6 -5 -344 -35 -378 -33 -8 1 1 5 20
10 53 14 369 35 358 23z m-728 -16 c-27 -12 -459 -25 -449 -13 6 6 275 20 419
23 48 1 52 -1 30 -10z m1845 -282 c-65 -13 -70 -13 -60 3 3 6 32 11 63 10 l57
-1 -60 -12z m-717 -13 c-10 -2 -26 -2 -35 0 -10 3 -2 5 17 5 19 0 27 -2 18 -5z"/>
<path d="M6546 5908 c-8 -13 -17 -39 -21 -58 -3 -19 -9 -43 -11 -52 -5 -17 6
-18 137 -18 125 0 140 2 129 15 -7 8 -18 15 -24 15 -7 0 -27 13 -46 30 -19 16
-41 29 -48 30 -7 0 -15 7 -19 15 -5 16 -53 45 -72 45 -6 0 -17 -10 -25 -22z"/>
<path d="M6481 5698 c-4 -13 -11 -47 -15 -77 -4 -29 -13 -63 -21 -75 -8 -12
-21 -53 -28 -92 -8 -38 -18 -77 -22 -86 -7 -17 17 -18 406 -19 392 -1 410 -2
339 -16 -53 -10 -179 -16 -422 -20 l-346 -5 -4 -29 -5 -29 66 -1 c48 -1 59 -3
41 -9 -14 -4 -42 -8 -62 -9 -55 -1 -80 -41 -91 -141 -2 -13 40 -16 303 -20
l305 -5 -305 -3 -305 -3 -19 -41 c-11 -23 -22 -59 -26 -80 l-7 -38 705 0 c388
0 703 -3 700 -6 -14 -14 -574 -33 -970 -34 l-438 0 -14 -23 c-9 -12 -22 -55
-31 -95 -8 -40 -22 -86 -30 -102 -8 -16 -15 -38 -15 -50 0 -19 6 -20 113 -22
l112 -2 -115 -5 c-112 -6 -115 -7 -120 -31 -4 -14 -14 -42 -23 -62 -9 -21 -17
-47 -17 -58 0 -19 6 -20 208 -22 l207 -2 -210 -6 c-115 -4 -211 -7 -212 -8 -2
-1 -3 -8 -3 -16 0 -7 -9 -34 -20 -59 -11 -25 -23 -67 -26 -94 -4 -26 -15 -64
-24 -83 -10 -20 -21 -58 -25 -85 -4 -28 -15 -66 -25 -86 -10 -20 -21 -62 -25
-93 l-7 -56 38 0 c83 0 316 21 464 42 153 22 172 22 1625 25 l1470 3 5 43 c3
24 13 55 22 69 10 15 22 53 27 87 5 33 15 69 20 80 6 11 11 22 11 25 0 3 -649
6 -1442 7 -794 1 -1425 5 -1403 9 129 26 355 30 1579 30 l1281 0 6 37 c3 21 9
46 14 56 7 16 -37 17 -821 19 l-829 3 835 5 835 5 12 63 c7 34 20 76 28 92 8
16 18 51 22 77 3 27 17 71 30 98 12 28 23 66 23 85 0 19 7 48 15 64 8 15 15
30 15 32 0 2 -235 5 -522 6 -490 3 -517 4 -433 17 63 10 222 15 533 18 l442 5
0 27 c0 15 9 44 20 66 26 51 42 135 26 141 -6 2 -339 5 -741 7 l-730 2 220 28
c215 27 343 35 940 57 354 13 361 14 368 49 3 14 9 35 13 45 7 19 1 19 -262
12 -148 -3 -366 -11 -484 -16 -277 -12 -1734 -12 -1700 1 14 4 79 14 145 22
l120 13 -68 7 c-38 4 -79 14 -90 22 -12 7 -51 19 -87 25 -36 6 -75 18 -87 25
-11 8 -43 20 -70 26 -26 7 -55 17 -63 24 -8 7 -33 18 -55 25 -22 7 -60 24 -84
37 -24 12 -49 23 -56 23 -7 0 -20 9 -29 19 -10 11 -29 22 -44 26 -14 3 -39 17
-55 31 -16 13 -34 24 -40 24 -6 0 -21 10 -35 23 -23 21 -32 22 -233 25 l-209
3 -9 -23z m979 -454 c-46 -7 -778 -54 -812 -53 -18 1 50 14 152 29 164 24 213
27 435 27 138 0 239 -2 225 -3z m1005 -29 c-5 -2 -140 -20 -300 -40 l-290 -35
-450 2 -450 3 205 14 c379 25 1312 66 1285 56z m488 -152 c-205 -2 -541 -2
-745 0 -205 1 -38 2 372 2 410 0 577 -1 373 -2z m400 -350 c-40 -2 -106 -2
-145 0 -40 1 -8 3 72 3 80 0 112 -2 73 -3z m-100 -150 c-40 -2 -107 -2 -150 0
-43 1 -10 3 72 3 83 0 118 -2 78 -3z m-2878 -352 c-11 -10 -253 -36 -261 -28
-6 6 102 21 256 36 8 0 10 -2 5 -8z m2258 -98 c-453 -2 -1193 -2 -1645 0 -453
1 -83 2 822 2 905 0 1275 -1 823 -2z m717 -140 c-63 -11 -199 -16 -535 -18
-247 -2 -443 -1 -435 1 74 22 262 31 640 31 396 0 411 0 330 -14z"/>
<path d="M9985 5646 c-26 -14 -66 -28 -89 -31 -23 -4 -55 -15 -72 -25 -17 -10
-51 -21 -75 -25 -24 -4 -60 -15 -79 -25 -20 -9 -56 -21 -80 -25 -25 -3 -77
-17 -117 -31 -39 -13 -83 -24 -97 -24 -14 0 -52 -9 -83 -20 -32 -10 -96 -24
-143 -30 -46 -6 -93 -16 -105 -23 -11 -6 -65 -16 -120 -23 -87 -10 -25 -12
482 -13 343 -1 584 3 587 8 4 5 9 30 12 55 l7 46 -199 2 c-176 1 -187 2 -99 8
55 4 145 8 200 9 116 1 117 1 146 111 13 49 15 66 6 72 -19 12 -30 10 -82 -16z"/>
<path d="M7225 3799 c-225 -4 -607 -11 -847 -14 l-436 -7 -11 -27 c-5 -14 -15
-52 -20 -83 -6 -32 -17 -68 -25 -80 -8 -13 -18 -48 -22 -78 -4 -30 -15 -71
-24 -90 -10 -19 -20 -52 -24 -72 l-7 -38 563 -3 563 -2 -560 -3 -560 -2 -22
-47 c-30 -64 -40 -123 -22 -123 9 0 10 -3 4 -8 -24 -17 -47 -68 -61 -134 -8
-39 -21 -83 -29 -98 -8 -15 -17 -45 -20 -66 -6 -35 -3 -42 30 -74 32 -31 41
-35 83 -32 26 2 808 5 1738 8 l1691 4 21 43 c11 23 24 65 27 92 4 28 12 58 17
68 8 16 -4 17 -199 17 -119 0 -203 4 -197 9 11 10 247 31 351 31 l71 0 7 41
c4 22 5 42 3 44 -1 2 -58 -3 -126 -11 -95 -11 -254 -14 -725 -12 l-602 3 345
43 c443 56 527 61 865 62 l281 0 15 63 c9 34 19 70 24 81 7 17 5 18 -31 11
-55 -11 -1968 -15 -1919 -5 43 10 1328 49 1725 53 l245 2 5 35 6 35 -1255 -2
c-701 -1 -1238 2 -1216 7 44 9 180 20 640 50 258 17 410 20 1081 20 l782 0 6
23 c3 12 6 30 6 40 0 10 9 38 21 63 11 25 23 68 26 95 l6 49 -764 0 c-656 1
-767 3 -783 15 -22 16 0 16 -741 4z m864 -644 c-3 -2 -201 -18 -440 -34 -617
-43 -728 -51 -873 -61 -125 -10 -1028 -12 -995 -3 9 2 153 26 320 52 l304 49
844 1 c464 0 842 -1 840 -4z m-1339 -174 c-25 -14 -238 -31 -366 -30 -101 1
-111 3 -69 10 28 5 122 13 210 17 225 13 242 13 225 3z m1340 -1 c-80 -9 -701
-30 -865 -30 -54 0 -95 3 -91 7 19 20 241 30 621 30 255 0 382 -3 335 -7z"/>
<path d="M5131 3161 c-17 -11 -6 -31 19 -31 15 0 30 18 30 36 0 7 -35 4 -49
-5z"/>
<path d="M8895 2688 c-71 -4 -793 -10 -1602 -14 -913 -4 -1471 -10 -1467 -15
6 -11 69 -55 113 -79 15 -9 40 -26 56 -38 15 -12 33 -22 40 -22 6 0 20 -9 29
-19 10 -11 30 -22 44 -26 15 -3 36 -15 47 -24 34 -31 83 -41 204 -43 l116 -2
-102 -3 c-57 -2 -103 -8 -103 -12 0 -5 20 -14 44 -20 24 -6 48 -17 55 -25 6
-8 28 -17 48 -21 21 -4 54 -15 75 -26 37 -19 65 -19 961 -17 699 2 927 6 938
15 8 7 45 17 82 23 37 6 89 19 115 29 26 10 67 21 90 25 24 4 60 15 80 25 21
10 57 21 80 25 24 4 60 15 80 25 21 10 55 22 77 26 21 3 53 14 70 23 16 8 43
18 60 22 21 4 32 13 35 30 4 14 13 41 22 60 8 19 18 47 22 63 l6 27 -92 -2
c-51 -1 -151 -5 -223 -10z m-742 -285 c-233 -2 -613 -2 -845 0 -233 1 -43 2
422 2 465 0 655 -1 423 -2z"/>
<path d="M6675 2241 c3 -5 36 -12 73 -16 37 -3 99 -16 137 -28 67 -21 86 -22
480 -22 386 0 415 1 500 22 50 12 129 24 177 28 49 4 90 11 94 16 3 5 -291 9
-731 9 -446 0 -734 -4 -730 -9z"/>
</g>
</svg>
