<?xml version="1.0" standalone="no"?>
<!DOCTYPE svg PUBLIC "-//W3C//DTD SVG 20010904//EN"
 "http://www.w3.org/TR/2001/REC-SVG-20010904/DTD/svg10.dtd">
<svg version="1.0" xmlns="http://www.w3.org/2000/svg"
 width="1280.000000pt" height="1116.000000pt" viewBox="0 0 1280.000000 1116.000000"
 preserveAspectRatio="xMidYMid meet">
<metadata>
Created by potrace 1.15, written by Peter Selinger 2001-2017
</metadata>
<g transform="translate(0.000000,1116.000000) scale(0.100000,-0.100000)"
fill="#000000" stroke="none">
<path d="M1043 10725 c1 -25 -27 -75 -41 -75 -15 0 -15 -2 -2 -10 11 -7 12
-12 3 -21 -6 -6 -9 -17 -6 -25 3 -7 -11 -21 -34 -33 l-38 -20 35 -1 c29 -1 31
-3 15 -10 -11 -5 -14 -9 -7 -9 6 -1 12 -13 12 -27 0 -18 -6 -28 -22 -32 -20
-5 -20 -6 -4 -12 17 -6 19 -17 16 -101 -1 -52 -3 -119 -4 -149 -1 -49 -3 -55
-26 -61 -23 -6 -23 -7 8 -8 21 -1 32 -6 32 -16 0 -8 -5 -15 -11 -15 -5 0 -8
-4 -5 -9 4 -5 -6 -14 -21 -19 -28 -10 -27 -10 10 -11 35 -1 37 -3 37 -32 0
-20 -13 -50 -37 -83 l-37 -51 38 35 c26 23 35 28 28 14 -6 -11 -18 -26 -26
-34 -27 -21 -18 -32 12 -13 29 18 24 12 -23 -27 -22 -19 -26 -20 -15 -5 11 15
8 14 -12 -4 -15 -13 -25 -27 -23 -32 3 -4 -4 -10 -15 -14 -11 -4 -18 -11 -15
-16 4 -5 -4 -13 -17 -18 -13 -6 -17 -10 -9 -10 11 -1 10 -6 -4 -21 -10 -11
-13 -20 -7 -20 6 0 14 5 17 10 4 6 11 7 17 4 6 -4 8 -3 5 2 -3 6 3 15 14 22
18 12 19 11 7 -10 -7 -13 -30 -41 -51 -64 -32 -34 -35 -40 -18 -39 11 1 30 10
41 20 15 13 19 15 15 4 -3 -8 -18 -22 -33 -31 -15 -9 -40 -31 -57 -49 l-30
-32 35 20 c19 11 46 24 60 27 l25 7 -24 -14 c-16 -10 -20 -16 -11 -19 8 -2 -7
-16 -33 -31 -26 -15 -46 -32 -44 -37 1 -5 -7 -16 -18 -25 -20 -16 -20 -16 3
-10 12 4 22 2 22 -4 0 -6 8 -7 17 -4 15 6 15 7 -2 13 -14 5 -15 8 -4 12 8 3
20 0 26 -8 10 -10 7 -17 -15 -35 l-27 -22 28 5 c32 6 26 -4 -17 -26 -39 -20
-43 -44 -7 -39 16 2 21 1 11 -4 -29 -15 -21 -39 13 -34 13 2 8 -11 -10 -26
-12 -9 -13 -12 -3 -8 16 7 -18 -25 -66 -63 l-29 -22 33 15 c18 9 37 13 42 10
5 -3 23 1 40 10 18 9 30 11 30 5 0 -6 -11 -16 -25 -22 -14 -6 -25 -15 -25 -20
0 -12 14 -10 30 5 8 6 6 2 -4 -10 -11 -13 -15 -23 -10 -24 5 0 -9 -9 -31 -20
-31 -15 -34 -18 -12 -14 38 7 34 1 -18 -29 -25 -15 -45 -29 -45 -32 0 -3 5 -2
12 2 6 4 22 8 36 10 24 3 24 2 -7 -30 -30 -31 -30 -32 -9 -33 18 -2 20 0 8 7
-8 5 -13 10 -10 11 3 0 15 2 28 5 22 4 22 3 5 -22 l-17 -26 35 7 c34 7 34 7
11 -10 -12 -9 -19 -21 -16 -27 4 -6 3 -13 -2 -17 -5 -4 -27 -26 -49 -50 -43
-47 -37 -46 38 7 27 18 51 31 54 29 3 -3 -7 -13 -22 -23 -15 -10 -22 -20 -16
-24 6 -3 -1 -21 -20 -43 -20 -25 -25 -35 -13 -30 12 5 15 3 9 -6 -6 -10 -3
-11 13 -2 18 10 19 9 9 -13 -7 -14 -15 -22 -19 -20 -4 3 -5 -2 -2 -10 5 -13
-4 -40 -61 -186 -25 -66 -28 -75 -26 -87 1 -7 -7 -29 -17 -50 -11 -21 -18 -50
-16 -65 1 -15 -1 -30 -6 -33 -5 -3 -7 -12 -3 -20 3 -9 -1 -23 -8 -33 -13 -15
-12 -16 3 -4 13 10 17 10 21 0 4 -10 6 -10 6 0 1 6 6 12 12 12 5 0 8 -4 5 -9
-4 -5 -1 -11 4 -13 7 -2 5 -16 -5 -41 -9 -21 -11 -37 -5 -37 5 0 10 6 10 14 0
8 9 24 20 37 l21 24 -17 -40 c-30 -75 -24 -80 10 -9 19 39 42 74 52 78 17 6
17 6 0 -13 -15 -16 -16 -24 -7 -35 15 -18 4 -63 -18 -76 -11 -7 -12 -9 -2 -10
8 0 11 -7 7 -17 -3 -10 6 -4 20 12 18 21 24 24 19 10 -4 -11 -9 -31 -12 -45
-3 -22 -2 -22 10 5 11 24 14 26 20 12 3 -9 4 -24 0 -33 -4 -11 -1 -15 13 -12
24 4 46 24 61 57 12 25 13 25 7 -9 -7 -43 -21 -86 -42 -125 -15 -28 -15 -29 1
-16 15 12 17 10 17 -28 0 -26 4 -40 10 -36 6 4 10 -6 11 -22 l1 -28 12 29 c12
25 14 26 18 9 3 -11 3 -44 0 -73 -3 -38 -2 -51 7 -46 7 5 11 -1 11 -13 0 -12
4 -21 9 -21 6 0 10 -8 10 -17 0 -10 1 -56 2 -103 1 -47 4 -76 6 -65 3 11 9 24
13 29 5 5 7 -2 4 -15 -5 -19 -4 -21 5 -9 9 11 10 -3 6 -60 -5 -74 -5 -74 9
-35 14 42 16 41 22 -12 3 -25 -3 -41 -28 -70 -24 -28 -26 -33 -8 -18 14 12 34
27 45 35 19 14 19 14 5 -6 -8 -12 -43 -54 -78 -93 -34 -39 -62 -74 -62 -77 0
-6 65 52 89 80 28 33 55 56 63 56 5 0 6 -5 3 -11 -4 -6 2 -5 14 3 12 7 21 16
21 21 0 4 5 5 11 2 6 -4 -6 -21 -28 -41 -28 -26 -31 -31 -10 -18 41 25 34 1
-16 -54 -24 -26 -51 -60 -61 -77 -12 -19 -3 -13 24 18 46 52 55 56 57 27 1
-11 -2 -18 -7 -15 -4 3 -11 -2 -14 -11 -3 -8 -2 -12 4 -9 15 9 12 0 -11 -39
-11 -19 -17 -41 -13 -47 4 -8 11 -4 20 12 10 18 13 20 14 7 0 -9 -11 -30 -25
-46 -38 -46 -30 -51 10 -6 19 21 35 35 35 30 0 -5 -6 -17 -14 -25 -22 -26 -71
-115 -59 -108 6 4 25 27 41 52 40 61 172 166 172 138 0 -4 -26 -32 -57 -62
-56 -53 -49 -54 11 -2 26 24 28 24 17 4 -6 -12 -21 -30 -34 -40 -13 -10 -39
-36 -58 -58 -19 -23 -2 -11 41 29 41 38 76 73 78 78 2 4 13 3 23 -3 15 -7 24
-7 35 2 17 14 19 -2 2 -19 -7 -7 -8 -12 -3 -12 5 0 -1 -7 -13 -16 -12 -8 -20
-19 -17 -24 3 -5 0 -12 -6 -16 -8 -4 -9 -3 -5 4 14 24 -5 11 -56 -37 -29 -27
-72 -64 -96 -83 -31 -25 -53 -56 -82 -118 -22 -47 -45 -93 -51 -104 -8 -13 -7
-16 1 -11 7 4 23 32 36 61 28 64 39 71 18 12 -8 -22 -12 -43 -9 -46 3 -3 5 1
5 8 0 7 32 44 70 81 39 38 63 66 55 63 -11 -5 -13 -2 -9 10 5 14 1 16 -21 12
-15 -3 -28 -6 -29 -8 -1 -2 -7 -15 -14 -31 l-12 -27 30 22 c45 33 45 17 0 -27
l-40 -39 4 30 c6 41 21 78 40 93 13 11 20 11 39 -2 18 -11 28 -12 43 -4 17 9
18 9 5 -6 -7 -9 -10 -17 -5 -17 4 0 -18 -25 -49 -55 -31 -31 -57 -59 -57 -63
0 -3 30 23 67 59 63 61 83 76 107 77 5 0 12 6 17 13 4 8 12 10 16 5 4 -4 -2
-15 -15 -23 -37 -25 -89 -75 -67 -65 11 5 37 10 58 10 21 1 43 5 50 9 12 7 97
22 97 17 0 -3 -19 -12 -90 -42 -14 -6 -18 -11 -10 -11 9 -1 -2 -15 -25 -36
-34 -29 -37 -34 -18 -32 12 0 19 5 17 9 -3 4 1 8 9 8 8 0 17 7 21 15 3 8 12
15 21 15 8 0 15 5 15 10 0 6 8 10 18 10 10 0 22 4 28 8 5 5 22 14 39 21 30 13
30 13 11 -8 -10 -11 -22 -18 -27 -16 -4 3 -17 -8 -29 -25 -20 -29 -49 -44 -34
-17 4 6 -1 5 -12 -4 -10 -9 -26 -19 -34 -23 -8 -3 1 -3 20 -1 31 5 33 4 16 -7
-11 -7 -38 -29 -60 -48 -23 -20 -58 -43 -78 -53 -21 -9 -38 -21 -38 -27 0 -6
10 -4 23 4 12 8 41 19 65 26 37 10 47 19 43 42 -1 11 51 49 58 42 3 -4 1 -9
-5 -11 -6 -2 -20 -11 -30 -19 -18 -15 -18 -15 4 -11 12 3 22 1 22 -4 0 -5 -8
-9 -17 -9 -14 0 -15 -2 -4 -9 22 -14 -5 -54 -32 -46 -14 4 -18 3 -9 -3 10 -7
8 -14 -8 -35 -15 -19 -17 -25 -6 -21 11 4 14 0 11 -15 -3 -15 0 -18 13 -14 10
4 5 -7 -13 -26 -20 -22 -24 -30 -12 -25 16 6 17 3 12 -22 -5 -21 -1 -18 14 14
11 24 25 41 30 38 5 -4 18 4 28 17 29 36 48 44 27 11 -10 -16 -25 -37 -33 -47
-15 -18 -16 -18 -22 0 -6 15 -8 14 -9 -7 -1 -27 -21 -60 -37 -60 -9 0 -25 -59
-19 -67 1 -1 21 27 45 63 24 35 46 64 50 64 3 0 7 -16 8 -35 1 -24 -3 -35 -13
-36 -28 -3 -32 -4 -41 -13 -4 -5 -3 -6 3 -3 18 10 48 -18 41 -37 -4 -10 -11
-15 -16 -12 -5 3 -11 -3 -14 -14 -4 -17 -2 -18 14 -9 17 9 19 6 19 -26 0 -33
1 -34 20 -23 11 7 20 21 20 31 0 10 7 20 15 23 8 4 15 10 15 16 0 5 -5 6 -10
3 -20 -12 -10 16 15 43 14 15 25 22 25 16 0 -7 -7 -17 -15 -24 -18 -15 -20
-35 -3 -24 6 4 -3 -19 -20 -51 -18 -32 -32 -65 -32 -73 0 -8 12 7 26 34 35 66
93 144 108 144 3 0 3 -7 0 -15 -4 -8 -2 -15 4 -15 5 0 12 6 15 13 3 6 20 20
38 31 29 16 27 12 -17 -30 -28 -27 -67 -76 -87 -109 -19 -33 -47 -71 -61 -84
-14 -14 -26 -29 -26 -35 0 -6 16 7 35 28 19 22 35 33 35 25 1 -8 10 3 20 23
20 36 40 57 40 41 0 -5 -6 -15 -12 -23 -11 -12 -10 -12 5 -1 12 10 17 10 17 2
0 -7 4 -10 8 -7 11 7 8 -31 -3 -41 -4 -5 -5 -2 0 6 5 10 4 12 -4 7 -6 -4 -9
-11 -6 -16 3 -5 0 -12 -6 -15 -5 -4 -8 -13 -5 -21 3 -8 1 -14 -3 -14 -5 0 -11
-6 -14 -14 -3 -8 14 -1 38 15 52 35 63 49 39 49 -13 0 -11 4 7 19 13 11 27 15
30 10 3 -5 11 2 17 16 10 22 22 29 44 27 3 -1 12 5 18 13 7 8 17 15 23 15 5 0
2 -9 -8 -20 -10 -11 -23 -20 -29 -20 -6 0 -45 -34 -86 -75 -60 -60 -70 -75
-57 -81 11 -4 14 -10 9 -18 -13 -16 -45 -116 -39 -122 2 -3 10 10 17 28 7 18
27 48 44 67 17 19 24 30 16 26 -15 -9 20 27 73 74 35 32 35 13 0 -25 -15 -16
-28 -34 -29 -40 -1 -7 -8 -23 -15 -37 -50 -90 -51 -94 -32 -72 10 11 30 29 43
40 l25 20 -19 -23 c-11 -12 -17 -25 -13 -28 3 -3 -6 -22 -19 -41 -13 -20 -24
-43 -24 -52 1 -9 7 -2 14 14 7 17 22 38 33 47 19 17 19 16 11 -50 -5 -37 -13
-80 -18 -97 l-9 -30 19 24 c18 21 22 34 24 89 1 9 4 19 7 22 12 10 22 53 10
46 -15 -10 -13 5 3 27 17 22 29 22 18 0 -5 -10 -7 -24 -5 -31 4 -10 10 -9 26
5 l20 18 -18 -28 c-13 -21 -20 -25 -26 -15 -7 10 -9 9 -9 -4 0 -9 -3 -25 -7
-35 -6 -16 -5 -17 12 -3 17 14 18 13 12 -4 -6 -16 -5 -17 8 -6 8 7 15 20 15
29 0 19 18 41 34 41 5 0 1 -10 -10 -22 -10 -12 -13 -18 -6 -14 24 14 11 -15
-25 -56 l-37 -43 35 33 c43 40 57 41 30 3 -36 -51 -23 -45 19 8 22 28 45 51
51 51 14 0 1 -38 -26 -75 -45 -61 -75 -123 -76 -156 0 -27 -2 -30 -8 -14 -6
14 -8 8 -7 -22 0 -24 3 -43 6 -43 4 0 12 24 19 53 15 58 81 156 124 181 36 23
34 10 -6 -33 -17 -20 -23 -28 -12 -20 40 32 49 31 19 -2 -32 -34 -54 -71 -54
-86 1 -4 10 9 21 29 10 21 29 43 41 49 l21 11 -21 -34 c-12 -19 -19 -38 -16
-41 4 -3 -3 -19 -15 -35 -12 -17 -21 -41 -21 -54 0 -19 5 -15 26 22 14 25 28
47 31 50 3 3 3 -30 0 -73 -3 -46 -2 -75 4 -72 5 4 9 21 9 40 0 19 5 37 10 40
6 3 10 18 11 33 l0 27 10 -25 c10 -23 9 -51 -5 -125 -3 -16 -3 -21 0 -10 11
38 24 40 25 5 2 -52 7 -92 13 -98 4 -3 6 4 6 16 0 12 5 22 10 22 13 0 13 -53
-1 -67 -6 -6 -7 -22 -3 -38 8 -34 24 -14 24 32 0 17 4 34 9 37 11 7 6 -193 -5
-203 -4 -3 -4 4 -1 17 3 12 1 20 -4 16 -5 -3 -9 -15 -9 -27 0 -12 -4 -29 -9
-37 -6 -8 -7 -19 -3 -24 3 -6 9 0 12 14 4 14 12 24 18 23 7 -2 12 6 12 18 0
11 4 18 9 15 4 -3 20 16 35 43 28 52 32 66 16 56 -16 -10 -12 5 11 42 12 19
24 32 27 29 3 -3 -2 -14 -11 -24 -19 -21 -22 -42 -6 -42 5 0 7 -5 3 -12 -4 -7
-3 -8 5 -4 6 4 9 12 5 17 -7 13 15 41 27 33 5 -3 9 -2 8 3 -3 14 13 43 23 43
6 0 6 -6 -1 -14 -7 -8 -13 -28 -13 -45 -1 -23 -4 -28 -12 -18 -6 7 -10 10 -9
8 2 -2 -2 -10 -7 -16 -6 -7 -7 -20 -4 -30 7 -17 8 -17 21 1 7 10 13 14 13 10
0 -4 -12 -24 -27 -44 l-27 -37 28 25 c22 19 28 21 23 8 -4 -10 -2 -18 3 -18 4
0 11 13 15 29 3 16 14 36 23 43 14 11 15 10 8 -7 -4 -11 -10 -36 -12 -55 -4
-31 -3 -29 13 14 10 27 25 52 33 54 12 4 13 2 2 -9 -6 -7 -12 -27 -12 -44 0
-16 -9 -49 -20 -73 -11 -24 -19 -46 -18 -50 1 -4 -4 -18 -11 -30 -7 -13 -10
-26 -7 -29 3 -3 9 3 13 13 7 20 27 36 40 33 4 0 16 16 25 37 19 43 23 24 9
-38 -5 -22 -5 -38 0 -38 5 0 9 -5 9 -11 0 -5 -5 -7 -12 -3 -7 5 -8 3 -4 -5 5
-7 15 -10 24 -6 13 5 12 2 -3 -15 -14 -16 -20 -17 -27 -8 -4 7 -8 9 -9 3 0 -5
-2 -21 -5 -33 -4 -22 -2 -21 22 7 14 17 32 31 40 31 8 0 14 6 14 13 0 8 4 7
11 -3 9 -13 10 -13 6 0 -2 8 0 23 5 33 5 11 5 17 -2 17 -5 0 -10 -7 -10 -15 0
-8 -4 -15 -9 -15 -10 0 30 99 55 134 18 26 18 13 0 -23 -13 -23 -13 -28 -1
-28 8 0 13 3 12 6 -1 3 2 6 8 6 5 0 9 -2 8 -5 -1 -3 -5 -14 -9 -24 -6 -15 -4
-17 6 -11 9 5 11 4 6 -4 -4 -6 -12 -9 -17 -6 -5 4 -9 -2 -9 -12 0 -11 -15 -44
-33 -75 -35 -57 -52 -102 -36 -92 5 3 9 13 9 22 0 9 11 30 25 46 13 16 27 37
30 47 4 10 11 18 17 16 6 -1 15 12 19 29 5 17 16 38 26 45 9 8 14 10 12 4 -3
-5 -13 -27 -23 -49 -16 -35 -52 -93 -67 -106 -3 -3 -17 -30 -32 -60 -15 -30
-21 -46 -13 -35 9 11 20 25 26 32 5 7 10 15 10 19 0 8 7 16 80 94 38 41 51 49
47 32 -7 -29 11 -18 25 16 12 27 12 27 18 -13 4 -22 8 -32 9 -22 0 10 5 16 10
13 5 -4 11 -3 14 1 2 5 2 2 0 -5 -4 -18 16 -54 27 -47 14 9 24 -66 11 -87 -21
-35 -29 -53 -45 -107 -22 -73 -14 -75 13 -4 24 66 63 122 60 88 -1 -11 -1 -31
0 -45 2 -24 2 -24 16 -6 13 17 14 15 21 -20 7 -42 23 -79 24 -56 0 7 5 10 10
7 6 -3 11 -25 11 -48 1 -27 3 -33 6 -17 5 28 23 52 23 31 0 -7 7 -29 16 -48
12 -23 19 -30 25 -22 4 7 10 -8 15 -37 4 -32 9 -43 13 -31 5 13 10 4 20 -30 8
-26 20 -57 28 -68 7 -11 13 -32 13 -47 0 -20 4 -26 15 -22 10 4 15 0 16 -12 1
-14 3 -12 8 6 6 22 8 20 15 -20 5 -33 9 -41 16 -30 8 12 10 11 10 -6 0 -12 7
-27 15 -34 11 -9 15 -9 15 -1 0 25 18 0 24 -34 4 -19 12 -37 18 -41 7 -5 9 2
6 20 -3 14 -1 26 3 26 5 0 9 -6 9 -12 0 -7 11 -35 24 -61 l24 -48 10 28 c10
26 10 26 11 5 1 -13 7 -30 15 -37 7 -7 23 -67 36 -132 13 -65 28 -124 34 -132
6 -8 17 -30 23 -50 l13 -36 -4 49 c-2 30 -1 44 5 35 5 -8 9 -25 10 -39 l1 -25
7 24 c5 20 8 18 18 -21 11 -41 42 -88 58 -88 4 0 5 7 1 15 -3 8 -3 15 0 15 9
0 35 -71 29 -80 -4 -6 -1 -10 4 -10 6 0 11 4 11 10 0 5 7 7 16 3 10 -4 14 -14
11 -29 -3 -16 0 -24 9 -24 8 0 14 5 14 12 0 6 3 8 6 5 4 -4 1 -13 -6 -22 -11
-13 -10 -14 4 -9 20 8 21 -5 1 -20 -13 -9 -11 -11 10 -12 45 -3 56 -11 49 -39
-4 -18 -3 -25 6 -23 15 4 22 -29 9 -38 -6 -3 -1 -13 9 -22 33 -29 38 -62 11
-85 -18 -14 -19 -17 -6 -13 26 9 46 -5 21 -15 -18 -7 -18 -8 2 -8 26 -1 41
-31 22 -43 -11 -6 -10 -8 0 -8 7 0 12 -8 11 -17 -2 -10 5 -33 15 -51 9 -19 15
-40 12 -48 -3 -8 -1 -14 5 -14 6 0 7 -4 4 -10 -3 -5 -3 -16 2 -22 4 -7 8 -20
9 -28 0 -8 5 -26 11 -40 6 -14 7 -29 3 -35 -11 -15 12 -105 27 -105 7 0 13
-11 13 -25 0 -14 -6 -25 -12 -25 -9 0 -8 -3 2 -10 8 -5 15 -17 16 -27 0 -10 3
-25 7 -33 7 -18 18 -67 23 -98 2 -12 6 -32 8 -45 2 -12 6 -33 9 -47 4 -14 9
-58 11 -99 3 -41 10 -77 15 -80 12 -8 22 -137 25 -328 3 -154 -9 -273 -27
-273 -5 0 -4 -7 3 -15 7 -9 9 -22 4 -32 -4 -10 -9 -31 -11 -48 -2 -16 -8 -32
-13 -33 -6 -2 -7 -8 -4 -13 6 -10 -23 -155 -34 -174 -4 -5 -7 -15 -8 -21 -3
-21 -47 -139 -53 -144 -4 -3 -15 -25 -26 -50 -29 -67 -78 -138 -135 -198 -27
-29 -50 -55 -50 -57 0 -12 -66 -64 -81 -65 -9 0 -22 -7 -29 -15 -7 -8 -17 -15
-22 -15 -5 0 -28 -9 -51 -21 -48 -23 -157 -59 -157 -52 0 3 -6 0 -14 -6 -8 -7
-23 -13 -34 -16 -11 -2 -32 -14 -47 -27 -14 -12 -56 -39 -93 -58 l-66 -35 -28
-90 c-47 -155 -47 -158 2 -95 24 30 47 59 51 64 5 5 0 -22 -11 -60 -28 -96
-26 -100 15 -37 3 6 79 -38 87 -49 6 -10 8 -10 8 -1 0 10 21 12 85 8 72 -4
113 1 282 36 109 22 225 52 258 65 33 14 94 38 136 55 60 23 85 39 115 74 21
25 44 45 51 45 7 0 13 6 13 13 0 8 11 24 25 37 14 13 25 29 25 37 0 7 5 13 11
13 5 0 8 4 5 8 -3 5 4 19 15 30 11 12 18 22 15 22 -3 0 0 13 5 30 6 17 18 30
26 30 10 0 12 6 8 21 -6 18 -5 19 13 10 25 -13 38 2 17 19 -19 16 -20 34 -1
27 8 -3 16 2 19 14 3 10 1 19 -4 19 -14 0 -11 17 7 35 9 9 24 13 35 10 11 -4
19 -2 19 4 0 6 -4 11 -10 11 -20 0 -9 19 12 22 20 3 21 5 7 17 -14 13 -14 20
0 69 15 56 39 76 86 74 15 -1 16 1 6 8 -8 4 -20 6 -28 3 -7 -3 -13 0 -13 7 0
6 4 9 8 6 4 -2 13 4 20 14 9 15 9 22 -2 33 -16 16 -1 42 29 50 17 4 17 5 3 6
-23 1 -24 21 -2 21 13 0 15 7 11 30 -5 24 -2 32 16 41 14 8 17 14 9 17 -6 2
-12 8 -12 13 0 4 8 5 18 2 15 -6 15 -4 4 9 -11 14 -11 16 0 14 7 -1 18 -5 25
-9 6 -4 14 -3 18 3 3 5 1 10 -5 10 -6 0 -9 4 -5 10 3 5 11 7 18 5 7 -3 19 -1
27 5 12 7 10 13 -13 34 -30 28 -35 41 -12 33 21 -9 31 14 12 28 -21 15 -22 45
-2 45 8 0 15 6 15 13 0 7 12 20 28 29 18 12 22 18 11 18 -9 0 -19 9 -22 20 -3
11 -2 18 3 15 9 -6 43 31 46 50 2 17 -12 20 -21 5 -7 -11 -35 -2 -35 11 0 5
12 9 26 9 22 0 25 2 14 15 -10 12 -8 16 11 24 23 9 23 10 -6 11 l-30 2 35 10
c31 9 33 11 15 19 -11 4 -17 8 -12 10 21 5 28 7 38 8 6 0 9 8 5 16 -4 12 3 15
32 17 34 1 32 2 -13 8 -27 4 -40 8 -27 8 12 1 22 6 22 12 0 5 15 14 33 19 30
9 29 9 -23 11 -39 1 -49 4 -35 10 18 7 18 9 3 15 -9 4 -22 4 -28 0 -5 -3 -10
-1 -10 5 0 6 10 11 23 10 12 -1 35 -2 51 -1 l29 1 -26 20 c-14 11 -37 20 -51
20 -14 0 -26 5 -26 10 0 6 24 10 53 10 75 0 89 14 31 30 l-48 14 29 9 30 10
-40 19 -40 18 50 -4 50 -5 -35 19 c-19 11 -30 19 -23 20 6 0 10 9 8 19 -3 17
0 18 28 10 33 -9 31 -5 -20 28 -14 10 -14 11 -2 7 10 -3 20 0 24 5 4 7 -11 20
-37 32 -35 17 -38 19 -13 15 76 -15 77 -15 59 5 -16 17 -15 18 22 13 l39 -5
-30 17 c-16 9 -34 23 -38 30 -4 8 -17 14 -27 14 -10 0 -22 5 -25 11 -4 6 -1
10 6 8 34 -4 40 4 9 11 l-35 7 33 2 c21 1 35 -4 38 -14 4 -8 13 -15 21 -15 8
0 11 5 8 10 -3 6 2 10 12 10 17 1 17 2 -1 15 -11 8 -17 18 -13 21 4 4 2 13 -4
21 -17 19 -2 16 34 -8 l32 -21 -30 26 c-27 24 -46 31 -68 27 -5 -1 -6 3 -2 9
3 5 -5 15 -19 22 -14 6 -26 19 -26 30 0 21 10 23 30 6 8 -7 7 -3 -3 8 -16 19
-16 22 -2 28 9 3 14 10 11 15 -3 5 3 7 14 4 14 -4 20 0 20 10 0 17 15 17 45 0
11 -6 17 -15 13 -19 -5 -4 -3 -13 3 -21 9 -9 8 -17 0 -27 -10 -11 -8 -16 8
-21 12 -3 21 -12 22 -18 0 -7 2 -27 3 -44 2 -20 -1 -33 -8 -33 -6 0 -3 -7 6
-14 16 -12 25 -48 32 -131 1 -16 6 -40 10 -52 4 -12 9 -30 11 -40 2 -10 8 -38
14 -63 5 -25 12 -65 15 -90 3 -25 8 -56 11 -70 13 -65 21 -433 9 -451 -3 -5
-7 -44 -9 -87 -4 -83 -30 -268 -45 -317 -5 -16 -16 -61 -25 -100 -22 -93 -102
-294 -130 -325 -12 -14 -28 -34 -36 -46 -35 -52 -101 -116 -131 -126 -18 -6
-35 -14 -38 -17 -9 -11 -75 -38 -169 -70 -51 -18 -100 -39 -109 -48 -9 -8 -53
-36 -97 -62 l-80 -46 -12 -119 c-7 -66 -12 -121 -10 -122 1 -2 18 26 37 62 19
35 37 64 40 64 3 0 6 -24 7 -52 1 -29 7 -54 12 -56 6 -2 11 -15 11 -30 0 -23
1 -24 13 -9 9 13 19 15 42 9 17 -5 60 -7 98 -4 60 4 67 2 67 -14 1 -17 2 -17
13 -3 8 11 37 18 100 22 90 7 209 31 328 66 44 12 94 38 147 75 93 66 91 63
158 174 34 57 58 86 68 86 13 -2 14 1 5 12 -14 17 19 63 41 56 13 -5 13 -3 1
12 -16 19 -6 35 11 18 18 -18 32 -14 17 5 -8 9 -9 14 -4 11 14 -8 38 19 25 27
-6 4 -7 11 -4 17 5 7 1 9 -9 5 -10 -3 -17 -2 -17 4 0 6 10 9 23 7 12 -2 21 -9
19 -16 -2 -14 14 -15 43 -2 16 7 17 9 3 9 -18 1 -78 33 -78 42 0 3 9 16 19 28
14 16 21 18 25 9 3 -7 3 4 0 25 -5 36 -4 38 15 32 12 -4 21 -2 21 4 0 6 -4 11
-8 11 -5 0 -8 12 -8 26 2 26 23 47 40 37 5 -3 6 -2 3 4 -4 6 9 24 28 42 36 33
46 58 19 47 -9 -4 -13 -2 -8 5 4 8 -1 9 -16 4 -15 -5 -20 -4 -16 4 4 6 23 10
42 8 19 -3 34 -1 34 4 0 4 -15 10 -32 12 -25 3 -20 4 16 5 l49 2 -27 25 c-15
14 -23 25 -19 25 4 0 2 4 -6 9 -10 6 -5 12 18 22 31 14 41 29 20 29 -8 0 -8 4
0 14 10 11 8 15 -6 19 -17 4 -17 5 0 6 9 0 17 8 17 16 0 8 10 20 22 26 22 12
22 12 3 19 -18 7 -19 8 -2 15 9 4 17 13 17 21 0 8 -8 14 -17 14 -15 0 -16 2
-3 10 8 5 17 5 20 0 3 -5 11 -5 20 0 8 5 11 12 7 16 -4 4 0 16 10 26 15 17 15
18 -13 14 -16 -2 -21 -1 -11 1 9 2 15 9 12 14 -4 5 0 9 7 9 8 0 23 7 34 16 18
15 18 15 -3 5 -27 -14 -55 -15 -34 -2 11 7 11 9 0 14 -10 4 -7 8 9 12 26 9 29
22 5 28 -13 2 -8 8 20 22 32 16 51 37 30 34 -5 -1 -19 0 -33 1 -16 1 -20 4
-10 7 8 3 21 10 28 16 12 9 11 12 -3 17 -13 4 -4 14 37 40 49 31 51 34 29 39
l-24 7 26 17 c45 29 26 59 -30 47 -28 -7 -34 -6 -31 8 2 9 18 20 36 26 41 11
41 24 0 28 -30 3 -28 5 22 16 62 14 107 36 53 26 -18 -4 -33 -4 -33 -1 0 4 15
11 33 16 l32 9 -40 1 c-30 1 -36 4 -25 11 8 5 26 10 40 11 17 1 13 4 -15 9
-22 5 -50 6 -62 3 -13 -3 -23 -1 -23 5 0 5 20 13 44 16 39 6 43 9 42 34 -1 20
-7 28 -23 30 -25 4 -30 17 -10 25 6 3 0 6 -15 6 -38 1 -35 18 5 30 17 5 26 10
19 10 -8 1 -10 6 -6 14 5 8 2 7 -9 -2 -16 -12 -17 -12 -11 5 4 10 11 24 16 30
5 8 0 14 -14 20 -18 6 -9 9 37 12 l60 5 -45 12 -45 13 35 2 35 1 -42 17 c-43
16 -60 35 -24 25 10 -3 22 0 25 6 4 6 -1 11 -11 12 -13 1 -11 3 7 9 l25 8 -26
1 c-30 1 -39 8 -33 26 3 7 15 11 27 8 l22 -5 -22 20 c-26 23 -30 42 -8 42 21
0 19 28 -2 33 -14 4 -12 5 5 6 12 0 22 6 22 11 0 6 5 10 11 10 5 0 7 -5 4 -11
-5 -7 -2 -7 11 0 11 5 37 13 59 17 l40 7 -45 12 c-59 17 -99 34 -80 35 13 0
13 1 0 11 -11 8 -8 9 15 4 41 -8 169 -15 163 -10 -3 3 -36 11 -74 19 l-69 14
60 2 c33 2 49 5 35 7 -42 7 -124 36 -139 50 -12 10 -5 11 40 6 l54 -6 -30 23
c-51 40 -52 42 -12 35 23 -5 37 -3 37 3 0 10 -35 24 -85 35 -11 3 -1 5 23 6
35 1 48 -4 68 -26 13 -14 27 -24 29 -21 3 3 -16 26 -42 52 -34 32 -43 46 -30
46 9 0 17 -4 17 -10 0 -5 7 -10 15 -10 8 0 15 4 15 9 0 5 -7 11 -15 15 -8 3
-15 12 -15 20 0 8 -8 19 -17 25 -15 8 -14 10 10 16 23 6 28 12 25 33 -2 18
-11 28 -28 32 -22 5 -23 7 -6 13 10 4 31 1 47 -7 16 -8 29 -13 29 -11 0 11
-78 55 -97 55 -12 0 -25 5 -29 12 -5 8 2 9 27 5 l34 -7 -29 24 -28 23 27 0
c19 0 23 -2 14 -8 -11 -7 -9 -9 6 -9 12 0 27 -6 35 -12 8 -7 6 -2 -5 11 -11
13 -33 32 -50 43 l-30 19 45 -6 45 -5 -30 14 c-16 9 -28 16 -25 16 23 4 98 5
95 0 -2 -3 22 -6 53 -7 57 -1 52 2 -25 21 -33 9 -67 36 -44 36 7 0 26 -7 43
-16 16 -9 27 -11 24 -6 -3 6 -3 12 1 15 5 2 4 3 -2 2 -5 -1 -18 7 -27 17 -10
10 -15 18 -10 18 4 0 -15 14 -43 31 -50 30 -50 30 -15 25 l35 -6 -30 15 c-19
9 -24 14 -12 15 9 0 17 4 17 10 0 5 -7 7 -15 4 -8 -4 -15 -1 -15 5 0 7 23 12
58 13 55 1 56 2 12 6 l-45 5 40 12 c39 12 58 39 33 48 -7 2 -4 2 7 0 11 -2 43
-6 70 -8 46 -4 48 -3 26 9 -23 13 -23 14 -5 18 11 3 -1 8 -30 13 -31 5 -43 10
-35 16 9 5 -1 10 -29 15 -60 9 -52 19 17 19 53 0 64 -4 102 -35 97 -78 125
-93 59 -30 l-65 61 60 -45 c59 -45 112 -66 67 -27 -24 20 -30 36 -9 25 6 -3
-6 11 -28 32 -23 22 -47 48 -55 59 -14 19 -14 19 5 4 17 -15 98 -39 85 -26 -3
2 -43 37 -89 77 -62 53 -78 71 -60 68 14 -2 23 -9 21 -17 -2 -9 3 -11 15 -7 9
4 14 4 10 0 -8 -9 11 -34 26 -34 6 0 3 6 -8 13 -20 15 -5 34 18 21 6 -4 -3 9
-21 28 -32 34 -33 57 -2 37 39 -24 24 -3 -40 57 -39 37 -68 69 -65 72 3 3 15
-4 28 -15 38 -34 53 -38 23 -5 -26 28 -28 32 -10 33 18 0 17 1 -3 16 -13 8
-23 19 -23 24 0 16 43 10 63 -9 11 -9 17 -11 13 -4 -10 17 9 15 24 -3 7 -8 17
-15 22 -15 6 0 0 9 -13 20 l-24 20 35 -6 c25 -4 31 -3 21 4 -8 6 -26 9 -41 7
-20 -3 -35 4 -51 22 l-24 26 25 -16 c14 -9 39 -15 57 -15 l32 1 -42 33 c-42
33 -87 94 -69 94 5 0 15 -6 21 -14 6 -8 23 -16 36 -19 22 -4 23 -2 13 11 -11
13 -10 15 6 9 15 -6 17 -5 7 7 -6 8 -23 17 -36 20 -13 3 -30 16 -36 29 -12 21
-11 21 8 5 11 -10 26 -18 35 -18 8 0 25 -11 38 -25 12 -13 27 -22 32 -19 5 3
19 -2 30 -13 20 -17 21 -17 15 0 -6 16 -3 16 26 -4 31 -21 30 -21 -7 19 -22
23 -37 44 -34 48 9 9 79 -27 72 -37 -3 -5 3 -6 12 -2 15 5 13 10 -12 31 -16
13 -22 21 -14 17 34 -18 50 -38 39 -51 -7 -9 -6 -14 2 -20 8 -4 9 -3 5 4 -10
17 6 15 34 -5 25 -16 25 -16 8 3 -24 28 -23 37 3 23 17 -8 20 -8 14 1 -5 9 -1
10 16 5 51 -16 53 -16 17 4 -20 12 -40 26 -44 32 -5 8 -3 9 6 4 7 -4 23 -9 34
-11 28 -3 80 -31 69 -36 -4 -3 -2 -3 6 -1 7 2 20 -2 27 -8 27 -22 14 0 -18 32
-18 18 -23 24 -10 14 38 -31 24 2 -17 42 -23 21 -37 42 -34 50 3 8 9 11 12 6
3 -4 17 -17 31 -28 23 -19 24 -19 10 -1 -8 11 -33 37 -55 58 -48 46 -38 50 17
6 34 -27 39 -28 29 -10 l-12 22 33 -20 c47 -28 58 -25 17 5 -19 14 -32 28 -29
30 3 2 1 7 -4 12 -5 5 -6 3 -2 -4 4 -7 4 -13 1 -13 -9 0 -115 80 -115 86 0 3
22 -10 49 -30 50 -37 68 -45 55 -25 -5 8 -1 8 14 0 11 -6 28 -8 36 -5 9 4 23
1 31 -6 9 -7 18 -10 21 -8 3 3 -19 27 -48 52 -49 44 -51 47 -24 42 16 -3 38
-15 48 -26 29 -31 36 -15 9 20 -28 39 -12 38 47 -1 l47 -32 -55 53 c-33 31
-42 44 -23 31 17 -12 39 -21 48 -21 9 0 31 -10 48 -21 27 -18 25 -15 -8 16
l-40 37 36 -21 c20 -11 39 -18 42 -14 4 3 15 -1 25 -10 25 -23 37 -9 15 17
-16 18 -14 17 15 -3 17 -12 32 -28 32 -35 0 -6 14 -20 32 -31 l32 -19 -39 49
c-35 42 -37 47 -15 36 16 -8 10 0 -15 21 -22 18 -53 46 -70 62 l-30 29 38 -27
c20 -14 53 -38 72 -52 62 -46 61 -16 -2 49 -36 38 -45 51 -23 34 19 -15 51
-38 70 -51 19 -13 46 -36 60 -51 14 -15 34 -31 45 -37 14 -8 11 -1 -10 23 -65
72 -66 75 -45 75 10 0 17 -3 14 -7 -2 -4 4 -13 13 -20 15 -12 16 -12 8 1 -5 8
-10 25 -11 38 0 13 -19 42 -40 64 l-39 42 41 -32 c23 -18 45 -32 49 -32 5 0
24 -12 44 -27 l36 -26 -34 36 c-19 21 -31 37 -25 37 5 0 -20 28 -56 61 -36 33
-51 51 -33 39 18 -11 35 -25 38 -30 4 -6 11 -10 16 -10 6 0 7 5 3 12 -8 12 30
-12 101 -66 l40 -30 -30 34 c-20 22 -24 31 -12 27 15 -6 16 -4 7 14 -6 11 -15
17 -20 14 -5 -3 -11 -1 -14 4 -4 5 -2 12 3 15 5 4 12 2 16 -4 3 -5 12 -10 18
-10 7 1 -1 12 -18 26 -45 39 -18 23 117 -68 39 -26 48 -22 14 7 -16 14 -27 27
-24 30 2 3 29 -18 60 -45 54 -48 86 -58 51 -16 -17 20 -17 20 0 7 33 -26 16
-1 -34 49 -28 28 -48 54 -45 57 3 4 -2 15 -11 26 -18 19 -17 20 5 8 13 -7 40
-27 60 -45 21 -18 55 -42 77 -54 25 -14 31 -16 17 -5 -12 10 -45 35 -72 56
-28 21 -50 44 -50 49 0 6 8 4 18 -5 24 -22 38 -22 21 1 -13 16 -12 16 6 3 11
-8 40 -33 65 -55 l44 -41 -47 57 c-44 53 -43 74 3 33 11 -10 23 -15 27 -12 4
4 17 -3 30 -15 13 -12 23 -17 23 -11 0 17 -38 45 -51 37 -7 -4 -10 -3 -6 3 3
5 -10 25 -29 44 -20 19 -40 43 -46 53 -10 18 -8 17 17 -2 15 -12 34 -22 41
-22 8 0 32 -16 54 -36 48 -44 53 -34 8 15 l-33 34 47 -32 c27 -18 48 -29 48
-25 0 4 12 -3 26 -17 l27 -24 -19 30 -19 30 50 -36 c28 -19 56 -39 64 -43 14
-9 -17 39 -54 83 -23 27 -3 20 33 -12 12 -11 22 -15 22 -9 0 7 0 15 0 20 0 4
-4 7 -9 7 -13 0 -25 13 -27 30 -3 17 10 12 44 -18 26 -24 30 -12 5 16 -18 20
-18 20 7 4 l26 -16 0 44 c1 24 -2 42 -6 40 -4 -3 -16 5 -26 18 -12 13 -13 17
-3 9 9 -6 19 -9 22 -6 3 3 23 -7 44 -22 29 -22 20 -9 -35 52 -91 101 -120 143
-61 88 69 -64 132 -114 143 -114 5 0 -1 12 -15 27 -25 27 -16 25 36 -11 26
-17 25 -14 -13 30 -24 27 -66 73 -95 101 -29 29 -47 53 -41 53 5 0 25 -16 44
-35 18 -19 37 -32 42 -29 5 3 24 -6 43 -20 36 -28 62 -37 29 -10 -19 15 -19
16 1 9 13 -4 5 10 -25 42 -25 26 -33 38 -19 25 35 -31 47 -28 18 6 l-24 27 27
-24 c15 -13 25 -27 23 -32 -3 -4 0 -11 6 -15 8 -4 9 -3 5 4 -11 17 9 15 24 -3
7 -8 16 -15 21 -15 5 0 -8 16 -29 36 l-37 37 37 -27 c20 -14 41 -25 46 -24 4
2 23 -9 41 -24 24 -21 31 -33 26 -48 -3 -11 -2 -20 3 -20 6 0 12 5 14 11 8 23
48 -14 49 -46 2 -27 2 -28 6 -5 3 14 9 30 15 35 6 7 9 7 8 0 -2 -5 -1 -32 0
-60 l2 -50 10 45 c9 40 11 42 19 23 4 -13 12 -64 16 -115 7 -85 8 -89 13 -43
l6 50 12 -75 c7 -41 16 -82 19 -90 3 -8 5 -21 4 -29 -1 -7 2 -10 8 -6 7 4 11
-10 11 -40 0 -28 6 -52 15 -61 9 -9 15 -34 15 -62 l1 -47 14 34 c8 18 15 54
16 80 l1 46 9 -35 c5 -19 9 -55 10 -80 1 -25 4 -39 6 -32 8 20 20 14 31 -17 6
-16 6 -34 1 -42 -12 -19 -11 -62 1 -54 6 4 10 -8 10 -29 0 -47 10 -72 21 -54
6 9 9 2 9 -19 0 -17 4 -35 10 -38 5 -3 7 0 4 8 -3 8 -1 17 3 20 14 8 31 -6 35
-28 1 -11 8 -23 13 -27 6 -5 4 -12 -5 -18 -13 -8 -11 -11 7 -16 13 -4 20 -10
17 -15 -3 -5 -1 -9 5 -9 6 0 7 -7 4 -17 -4 -11 -3 -14 5 -9 8 5 14 -7 18 -33
4 -23 10 -38 15 -35 5 3 9 0 9 -6 0 -6 5 -8 12 -4 9 5 9 2 -1 -9 -13 -17 -6
-23 22 -18 4 0 7 -8 7 -19 0 -11 5 -20 11 -20 6 0 9 -9 6 -20 -3 -11 -1 -18 4
-15 15 10 43 -59 44 -115 2 -61 12 -100 27 -100 5 0 8 -6 7 -12 -1 -7 2 -22 6
-32 8 -19 9 -19 16 0 6 16 8 14 9 -11 2 -30 2 -30 10 -5 l8 25 1 -27 c1 -16 6
-28 12 -28 5 0 9 -8 8 -17 -1 -10 5 -34 14 -53 l16 -35 2 40 c2 38 2 38 6 7 2
-18 9 -30 14 -27 5 4 9 -5 9 -19 0 -18 4 -24 15 -20 10 4 15 0 15 -12 1 -13 5
-10 15 11 7 17 14 27 15 23 5 -17 8 -29 9 -40 2 -7 7 -4 12 7 7 16 8 13 4 -13
-3 -20 -1 -31 5 -27 6 4 10 -8 11 -27 0 -18 4 -42 8 -52 7 -19 8 -19 14 3 5
19 8 21 26 11 12 -6 21 -18 21 -26 0 -10 6 -13 19 -9 15 5 20 -1 26 -32 7 -35
8 -36 15 -13 5 20 8 14 12 -29 3 -29 10 -56 16 -60 5 -3 23 -44 38 -90 23 -66
30 -79 35 -60 5 23 12 2 35 -109 6 -29 24 -29 25 1 0 21 1 21 8 2 8 -19 9 -18
13 5 4 20 6 18 7 -10 2 -57 21 -74 22 -20 l1 45 14 -59 c18 -76 28 -86 20 -21
-4 37 -3 45 4 30 8 -16 9 -13 5 15 -4 29 -3 32 6 17 6 -11 9 -32 5 -48 -4 -21
-2 -27 8 -23 9 3 17 -3 21 -15 3 -12 10 -19 15 -16 5 3 11 1 15 -5 4 -6 11 -7
17 -4 7 5 9 1 5 -9 -3 -10 -2 -17 3 -17 6 0 10 -7 10 -15 0 -10 7 -15 18 -13
11 2 17 -3 16 -15 -1 -9 3 -17 8 -17 6 0 5 -6 -2 -15 -10 -12 -8 -13 10 -10
16 3 20 0 16 -10 -3 -8 1 -20 8 -28 15 -14 30 -69 29 -104 0 -13 5 -23 12 -23
7 0 10 -14 8 -40 -2 -22 1 -40 6 -40 5 0 7 -9 4 -20 -3 -12 0 -20 7 -20 10 0
10 -3 0 -15 -10 -12 -9 -15 5 -15 14 0 15 -3 6 -14 -9 -11 -9 -15 1 -18 10 -4
10 -8 -1 -21 -12 -15 -11 -17 3 -17 10 0 14 -4 11 -10 -3 -6 -2 -10 3 -10 5 0
10 -20 10 -45 1 -25 4 -50 7 -55 3 -5 1 -19 -5 -30 -6 -11 -7 -20 -2 -20 12 0
9 -190 -2 -209 -6 -10 -5 -12 2 -7 11 7 18 -14 12 -39 -3 -14 -10 -81 -14
-132 -2 -25 -15 -59 -34 -89 -18 -26 -32 -51 -32 -54 0 -4 -26 -20 -57 -34
-32 -15 -78 -39 -103 -53 -25 -14 -74 -41 -110 -60 -36 -18 -119 -68 -185
-111 l-119 -77 -53 -140 c-48 -129 -48 -141 -1 -74 l18 24 -10 -28 c-16 -47
-12 -52 20 -22 34 33 36 29 15 -22 -8 -20 -14 -38 -12 -39 2 -2 19 16 37 41
37 49 50 56 50 25 0 -12 10 -25 26 -32 22 -10 25 -17 20 -42 l-6 -31 20 23
c13 16 26 21 44 18 77 -14 189 -17 256 -7 41 6 89 13 105 16 113 16 194 39
289 81 l109 49 44 85 c44 85 83 216 87 288 0 12 8 27 16 32 12 8 12 10 1 10
-11 0 -11 3 0 16 10 13 10 17 -1 24 -11 7 -11 12 -2 23 7 7 9 17 5 20 -3 4 -1
13 6 21 9 11 9 15 -1 19 -10 4 -10 7 1 15 7 6 9 11 3 13 -14 5 6 119 21 119 7
0 5 5 -3 10 -13 8 -12 10 3 10 21 0 22 14 1 34 -16 17 -13 19 21 17 18 -1 18
0 -2 11 -31 15 -31 48 0 41 l22 -5 -22 16 c-24 18 -21 46 6 46 14 0 14 2 1 10
-16 10 -22 60 -7 60 4 0 5 9 2 20 -10 31 4 60 28 61 l22 0 -21 11 c-27 13 -28
57 -1 50 20 -5 23 13 3 21 -20 8 -16 244 4 257 12 7 11 10 -3 16 -13 5 -15 10
-7 19 8 9 8 14 0 17 -8 2 -8 11 -1 31 7 17 7 27 1 27 -6 0 -10 7 -10 15 0 12
7 14 28 9 l27 -6 -30 26 c-16 14 -24 25 -17 26 10 0 10 5 2 20 -9 16 -8 20 7
21 11 0 13 3 5 6 -9 3 -7 12 8 31 16 20 18 27 8 34 -7 4 -8 8 -3 9 6 0 -1 5
-15 9 -23 7 -22 8 10 9 l34 1 -32 30 c-18 16 -28 30 -21 30 10 0 10 3 1 12
-17 17 -15 35 4 42 10 4 13 2 8 -7 -5 -8 -2 -7 9 2 15 12 17 11 18 -5 0 -15 3
-14 11 6 6 14 14 41 18 60 7 35 7 35 15 -17 8 -58 28 -70 40 -25 7 26 8 26 15
6 5 -12 7 -38 6 -57 -3 -32 -1 -35 15 -27 14 8 18 6 22 -13 4 -19 4 -19 6 5 2
46 20 41 33 -8 l13 -48 6 34 6 35 12 -48 c15 -54 25 -64 47 -46 12 10 16 9 21
-10 3 -13 11 -20 19 -17 17 6 19 -15 3 -31 -7 -7 -3 -9 16 -5 31 6 50 -15 33
-36 -6 -7 -7 -12 -2 -11 21 4 35 -2 29 -11 -3 -5 -1 -10 4 -10 6 0 11 -7 11
-15 0 -8 5 -15 10 -15 6 0 8 -10 4 -24 -5 -21 -3 -24 14 -19 14 3 24 -2 32
-17 6 -12 9 -24 6 -27 -3 -3 4 -17 15 -32 18 -23 19 -27 5 -37 -21 -15 -20
-24 3 -24 21 0 37 -40 20 -51 -6 -4 -4 -9 7 -13 9 -3 14 -9 11 -13 -3 -3 1
-22 9 -41 8 -20 12 -42 10 -49 -3 -7 -1 -13 4 -13 5 0 9 -8 9 -18 -1 -32 7
-67 23 -102 23 -50 28 -80 15 -80 -9 0 -9 -2 -1 -8 7 -4 15 -52 18 -112 4 -58
11 -122 15 -142 8 -35 6 -219 -4 -283 -2 -16 -9 -31 -15 -33 -5 -2 -8 -8 -4
-13 3 -5 -1 -12 -10 -15 -8 -3 -17 -18 -21 -33 -6 -27 -62 -70 -157 -120 -71
-38 -154 -91 -180 -116 -15 -14 -30 -25 -33 -25 -10 0 -150 -122 -154 -134 -2
-6 -9 -18 -16 -26 -7 -8 -31 -69 -54 -135 -31 -90 -36 -114 -22 -95 l20 25 -5
-25 c-3 -14 19 20 50 74 31 55 58 101 60 104 3 2 4 -25 4 -60 0 -39 6 -74 16
-93 8 -16 13 -41 10 -55 -4 -25 -4 -25 7 -2 14 26 13 26 75 7 27 -8 64 -15 82
-15 23 0 32 -5 32 -17 0 -14 3 -14 23 4 20 19 38 22 167 26 80 3 198 10 264
17 117 13 118 13 191 63 l73 50 11 61 c6 33 19 124 28 201 13 110 21 145 36
162 17 19 18 23 5 23 -24 0 -32 32 -12 47 10 7 22 13 27 13 6 0 0 9 -13 20
-15 13 -18 20 -9 20 12 0 12 2 0 9 -11 7 -11 15 -3 40 6 18 7 31 2 31 -15 0
-7 54 10 67 13 11 13 12 -2 13 -19 0 -19 40 1 63 9 12 9 16 -1 20 -10 4 -8 9
5 17 9 6 15 15 12 21 -4 5 1 9 9 9 9 0 16 4 16 9 0 4 -12 6 -27 4 -26 -4 -26
-3 6 11 18 9 37 13 42 10 5 -3 9 2 9 11 0 14 -6 16 -27 11 l-28 -6 25 15 25
14 -27 1 c-37 0 -43 15 -16 39 20 20 15 27 -14 22 -15 -2 -8 11 15 29 l22 19
-22 -6 c-31 -7 -29 6 5 34 l27 22 -27 1 c-16 0 -28 4 -28 8 0 5 12 13 28 19
25 10 25 11 5 12 -23 1 -33 21 -11 21 6 0 4 6 -7 13 -17 13 -17 15 3 35 14 14
17 24 11 28 -8 4 -7 9 2 15 12 8 12 10 0 18 -11 7 -11 9 0 14 11 4 10 6 -2 6
-13 1 -16 13 -15 71 1 39 6 74 11 78 19 14 16 34 -4 27 -22 -7 -23 6 -2 44 12
21 11 23 -2 18 -11 -4 -15 0 -15 11 1 9 -2 42 -6 73 -6 51 -5 56 16 67 l23 12
-25 -5 c-24 -6 -24 -5 -6 9 17 14 18 16 3 16 -10 0 -17 8 -17 20 0 11 7 20 15
20 8 0 15 5 15 11 0 6 -7 9 -15 5 -19 -7 -19 1 1 21 14 15 14 17 -3 26 -10 6
-20 11 -22 13 -2 2 10 14 25 28 l29 24 -29 -5 c-20 -4 -27 -2 -22 6 4 6 2 11
-5 11 -7 0 5 16 27 35 22 20 29 31 17 25 -12 -5 -33 -10 -47 -10 -37 0 -33 27
7 44 l32 14 -39 1 c-39 1 -39 1 -20 19 11 11 26 22 34 25 11 4 9 6 -5 7 -16 1
-14 4 10 15 30 14 30 14 5 16 -14 1 -36 1 -48 0 -13 -1 -21 2 -18 8 3 5 -2 8
-11 7 -10 -2 -21 2 -25 8 -10 14 -10 28 0 22 4 -2 16 2 27 10 19 14 19 14 -1
15 -18 0 -18 1 1 9 12 4 27 15 34 24 12 14 10 16 -10 16 -37 0 -69 11 -63 21
3 5 -7 14 -23 21 l-28 11 30 7 30 7 -32 8 c-35 8 -45 25 -15 26 15 0 14 2 -3
10 -16 7 -14 8 10 5 47 -7 122 -13 103 -9 -28 7 -21 19 20 37 34 16 26 15 -30
0 -23 -6 -23 -6 -3 9 20 16 20 16 -1 11 -12 -3 -25 -1 -28 5 -4 6 -16 11 -27
11 -11 0 -32 11 -47 25 l-27 25 28 0 c16 0 26 4 22 10 -3 5 -14 10 -24 10 -10
0 -18 7 -18 14 0 8 3 15 6 14 3 0 17 1 31 2 21 1 17 5 -25 24 -32 15 -44 25
-35 29 12 4 12 6 -1 6 -9 1 -29 13 -45 28 l-29 26 33 -6 c24 -5 32 -3 32 7 0
8 -6 17 -12 19 -7 3 3 6 22 6 26 1 31 4 20 11 -8 5 -23 10 -33 10 -10 0 -34
11 -53 24 l-35 24 27 6 28 7 -29 19 c-28 18 -43 50 -24 50 6 0 7 5 3 12 -5 8
-2 9 12 4 45 -19 58 -17 27 4 -35 23 -43 36 -18 26 8 -3 15 -1 15 4 0 6 10 6
26 -1 15 -5 29 -8 31 -5 6 6 -58 27 -66 21 -4 -2 -8 2 -8 10 0 10 8 13 26 9
25 -6 25 -6 6 9 -11 9 -15 17 -10 17 6 0 -1 7 -15 15 -15 9 -19 14 -10 15 13
0 13 2 1 9 -19 12 -22 51 -4 51 8 0 12 -4 8 -9 -3 -5 0 -13 6 -17 7 -4 9 -3 5
4 -3 6 3 12 16 15 l23 4 -25 11 c-14 6 -21 11 -16 11 6 1 1 8 -10 16 -15 12
-16 16 -6 23 11 7 8 11 -10 15 -34 9 -33 47 2 48 23 0 23 1 5 9 -22 9 -12 15
35 23 21 4 20 5 -7 6 -31 1 -58 20 -31 22 7 0 4 4 -7 9 -18 7 -18 8 7 15 15 4
33 4 40 0 7 -3 4 1 -7 9 -11 9 -25 14 -32 12 -7 -3 -13 -1 -13 4 0 6 -9 10
-19 10 -11 0 -26 8 -33 19 -7 10 -22 21 -33 24 -14 3 -12 5 10 6 22 1 26 4 17
13 -21 21 -13 28 34 28 30 0 43 4 38 11 -5 8 -1 8 14 0 12 -6 24 -16 27 -21 3
-6 27 -9 53 -9 30 1 37 4 19 6 -16 3 -25 9 -21 15 4 6 -1 8 -15 3 -15 -4 -29
-1 -41 10 -10 9 -38 19 -61 22 -34 5 -39 8 -24 14 11 4 14 8 7 8 -7 1 -20 8
-28 16 -14 13 -13 15 8 16 18 1 15 3 -12 12 l-35 10 48 8 c50 8 75 19 42 19
-14 0 -15 3 -5 15 10 12 9 15 -4 15 -10 0 -14 5 -11 10 3 6 -2 11 -12 12 -10
0 5 4 32 8 l50 7 -42 1 c-52 2 -55 16 -9 33 19 7 32 17 29 22 -3 6 -1 7 5 3 6
-4 20 2 32 14 11 11 20 16 20 10 0 -5 7 -7 15 -4 8 4 15 14 15 23 0 9 24 31
52 50 46 30 50 31 35 10 -9 -13 -20 -31 -24 -39 -10 -22 -30 -40 -44 -40 -8 0
-8 -5 2 -17 12 -14 12 -16 0 -8 -10 5 -12 4 -7 -3 9 -15 39 -15 54 0 17 17 16
-6 0 -24 -7 -7 -20 -22 -28 -33 -15 -20 -15 -20 9 0 27 22 25 18 -26 -63 l-34
-53 27 7 c24 6 25 5 15 -14 -23 -43 -9 -46 27 -6 20 22 43 39 50 37 6 -3 9 -9
6 -15 -4 -7 -9 -6 -13 1 -4 6 -8 -6 -8 -27 l-1 -37 23 28 c27 31 32 33 32 13
0 -8 -5 -14 -10 -13 -5 1 -12 -4 -15 -12 -2 -8 0 -11 5 -8 5 3 9 -3 10 -13 1
-11 -3 -22 -8 -26 -6 -3 -9 1 -7 9 2 9 -1 15 -6 14 -17 -3 -61 -54 -62 -71 -2
-20 3 -20 23 -1 24 25 27 9 4 -24 -28 -38 -1 -37 29 2 12 15 27 27 34 27 7 0
23 11 36 25 13 14 28 25 33 25 6 0 0 -11 -13 -25 -14 -15 -18 -25 -11 -25 11
0 11 -3 0 -16 -7 -9 -14 -25 -16 -35 -2 -11 -14 -36 -27 -57 -12 -20 -24 -41
-26 -47 -1 -5 -11 -16 -21 -23 -15 -11 -17 -17 -8 -33 8 -15 7 -25 -3 -37 -7
-9 17 14 54 52 54 57 69 68 80 58 11 -9 18 -9 28 1 10 10 11 9 5 -3 -16 -29
-38 -49 -48 -43 -5 3 -7 1 -4 -4 4 -6 -5 -23 -19 -38 -28 -30 -25 -48 4 -22
32 29 37 18 6 -14 -24 -26 -25 -30 -7 -20 12 6 25 16 28 21 4 6 10 8 15 5 5
-3 12 0 16 6 5 8 3 9 -6 4 -9 -5 -11 -4 -6 3 4 7 14 12 22 12 8 0 14 4 14 9 0
5 15 20 33 32 l32 23 -21 -25 c-28 -33 -59 -82 -59 -94 -1 -5 -6 -20 -13 -32
-10 -17 -9 -22 4 -27 10 -4 14 -14 11 -26 -6 -24 1 -21 63 29 25 19 38 27 30
17 -8 -10 -15 -23 -16 -30 -1 -6 -6 -20 -10 -30 -6 -15 -4 -17 6 -11 9 5 11 4
6 -4 -4 -6 -11 -9 -16 -6 -5 3 -11 1 -14 -4 -4 -5 -2 -13 4 -16 9 -5 -37 -75
-70 -105 -3 -3 -14 -16 -24 -30 -11 -14 0 -6 23 18 46 46 54 51 44 25 -5 -12
-3 -14 8 -9 8 4 6 1 -3 -7 -32 -25 -19 -26 32 -1 27 13 54 24 59 24 4 0 25 11
45 25 38 26 47 23 19 -7 -9 -11 -11 -18 -5 -18 13 0 12 -27 -1 -47 -12 -20 7
-15 37 8 14 11 26 19 26 16 0 -10 -32 -67 -41 -72 -5 -4 -9 -11 -9 -17 0 -6
25 15 56 48 36 39 46 46 29 22 -15 -21 -24 -38 -20 -38 4 0 14 8 21 17 17 24
29 10 14 -17 -6 -12 -13 -31 -16 -43 -2 -12 -12 -33 -22 -47 -32 -44 -37 -54
-21 -45 8 4 22 15 33 24 10 9 20 15 22 14 11 -7 24 -2 19 7 -3 5 -1 10 4 10 6
0 11 6 11 13 0 7 7 22 16 33 14 18 15 18 4 -4 -6 -12 -8 -22 -5 -22 9 0 -25
-61 -47 -84 -11 -12 -24 -29 -30 -39 -9 -18 -8 -18 16 -2 35 23 33 8 -6 -46
-20 -27 -25 -38 -13 -29 11 8 23 19 27 24 4 6 10 -2 13 -16 5 -18 -1 -41 -19
-76 -33 -66 -33 -77 1 -29 14 20 32 37 40 37 8 0 11 -5 8 -10 -4 -6 -11 -7
-17 -4 -8 5 -9 1 -5 -10 4 -10 1 -19 -8 -22 -8 -4 -15 -10 -15 -15 0 -6 9 -5
20 1 21 11 27 1 10 -16 -7 -7 -6 -11 4 -11 8 0 13 5 9 10 -3 5 3 6 16 2 14 -4
31 1 53 16 18 13 28 17 23 8 -4 -7 6 1 24 19 36 39 61 34 35 -6 l-17 -27 23
20 22 20 -16 -39 c-9 -21 -18 -50 -21 -64 -2 -13 -12 -33 -21 -43 -33 -37 7
-19 43 19 28 29 31 30 14 7 -54 -75 -55 -76 -42 -84 8 -5 27 6 53 30 46 45 75
53 34 10 -34 -36 -10 -37 30 -2 l26 22 -7 -22 c-6 -16 -4 -20 6 -13 10 6 9 0
-2 -17 -10 -14 -16 -40 -14 -60 1 -19 -2 -39 -7 -46 -5 -7 -6 -18 -2 -24 4 -7
3 -9 -3 -6 -6 4 -16 0 -23 -8 -7 -8 -9 -15 -5 -15 5 0 0 -10 -11 -22 l-19 -23
26 23 c30 26 47 29 28 5 -13 -16 -12 -17 4 -4 9 7 17 22 17 32 0 10 4 21 10
24 6 3 7 -1 4 -9 -4 -11 0 -16 10 -16 24 0 20 -16 -10 -39 -17 -13 -21 -21
-12 -21 8 0 18 3 22 7 17 17 33 10 28 -13 -2 -14 -9 -21 -16 -17 -6 3 -5 0 3
-8 10 -11 15 -11 18 -1 3 6 13 12 22 12 10 0 24 11 31 25 20 37 32 9 15 -32
-18 -42 -13 -42 14 0 24 37 28 22 7 -28 -20 -47 -7 -53 16 -8 15 31 18 33 15
12 -3 -20 1 -25 15 -24 10 1 24 7 30 13 9 9 6 11 -10 7 -24 -4 -30 10 -8 18 7
3 16 21 20 41 4 19 11 38 16 41 5 3 7 -5 4 -17 -3 -13 -7 -68 -8 -123 -1 -75
2 -104 13 -117 9 -12 10 -18 3 -18 -7 0 -12 -10 -12 -22 1 -21 2 -21 16 6 12
21 13 30 4 36 -8 5 -8 24 2 76 12 64 13 66 19 34 l5 -35 8 30 c14 57 27 74 21
28 -3 -24 -7 -62 -10 -85 l-5 -43 11 35 c10 31 12 33 19 15 7 -18 10 -16 24
17 9 21 16 48 17 60 0 22 1 22 9 3 6 -14 9 -16 10 -5 2 8 2 18 1 23 0 4 4 7 9
7 9 0 15 -30 11 -53 -1 -5 3 -6 9 -2 8 5 16 -38 11 -67 0 -5 4 -8 9 -8 6 0 10
-9 10 -20 0 -11 4 -20 10 -20 6 0 6 9 0 26 -6 14 -9 51 -8 82 l1 57 7 -45 c7
-43 7 -44 9 -10 l2 35 19 -40 19 -40 -5 35 -4 35 13 -33 c7 -18 16 -30 20 -26
4 4 7 -1 7 -12 1 -10 7 -32 15 -49 10 -19 13 -22 9 -7 -12 49 17 17 55 -60 22
-46 37 -69 34 -53 -8 37 -8 54 1 80 6 14 5 16 -2 7 -7 -11 -12 -6 -21 19 -14
39 -14 42 -1 34 14 -8 13 -1 -5 42 -21 49 -18 65 4 24 14 -27 19 -30 24 -17 4
10 2 26 -3 36 -18 34 -10 43 12 14 39 -52 41 -50 7 11 -33 58 -33 59 -7 40 14
-11 24 -23 22 -27 -2 -4 1 -10 7 -14 8 -4 9 -3 5 4 -13 22 11 12 28 -11 l17
-22 -12 25 c-6 14 -23 37 -37 53 -35 37 -21 34 25 -5 27 -23 32 -25 15 -7 -12
14 -25 36 -27 49 -2 13 -15 34 -27 48 l-23 25 23 -14 c12 -8 22 -17 22 -22 0
-4 4 -6 9 -3 4 3 19 -6 31 -19 13 -14 40 -35 59 -46 20 -11 30 -15 24 -8 -24
25 -13 32 12 9 14 -13 25 -19 25 -13 0 6 -5 13 -11 15 -5 2 -12 12 -13 23 -2
11 -9 19 -14 18 -6 -2 -9 4 -6 11 3 8 -11 32 -30 54 -20 22 -36 43 -36 48 0 5
5 1 11 -8 5 -10 15 -18 21 -18 6 0 -2 12 -18 27 -16 15 -29 37 -29 49 -1 19 2
21 23 13 14 -5 41 -22 61 -38 42 -33 61 -44 61 -37 0 2 -27 24 -60 47 -33 23
-60 46 -60 51 0 5 5 6 10 3 6 -4 9 3 6 17 -2 14 -9 22 -19 20 -8 -1 -18 2 -22
8 -4 6 1 7 11 3 12 -4 15 -3 10 5 -9 16 59 -25 74 -44 7 -7 17 -14 23 -14 6 0
2 6 -9 14 -17 13 -16 14 18 11 20 -2 45 -8 56 -14 14 -7 23 -8 27 -1 3 5 -2
10 -12 10 -10 0 -28 7 -39 15 -12 8 -33 16 -48 19 -29 5 -70 35 -73 53 -2 10
3 10 25 1 15 -7 31 -15 37 -20 5 -4 13 -8 19 -8 5 0 1 7 -10 15 -14 11 -15 14
-4 15 21 0 -40 53 -80 70 -29 12 -31 14 -13 21 13 5 46 -2 89 -16 l69 -24 -28
24 c-28 25 -28 25 -5 25 21 1 20 2 -7 14 -16 7 -37 11 -46 8 -9 -2 -20 2 -24
8 -5 9 -1 10 16 5 23 -7 24 -7 4 9 -27 21 -16 20 41 -4 26 -11 52 -19 57 -17
5 1 -18 16 -52 31 -43 19 -61 32 -57 42 3 8 1 14 -3 14 -5 0 -12 7 -15 16 -5
14 -4 15 9 4 11 -9 15 -9 15 -1 0 7 -14 20 -31 29 -17 9 -38 23 -47 30 -15 12
-15 13 3 7 41 -15 85 -23 80 -15 -3 5 -19 11 -35 15 -16 4 -33 11 -37 17 -4 8
0 9 12 4 15 -6 16 -4 4 10 -12 15 -10 15 25 0 22 -9 41 -14 44 -12 2 3 -12 12
-33 20 -23 10 -34 20 -29 27 5 9 2 10 -12 5 -15 -5 -16 -4 -7 5 9 9 19 9 44 0
44 -15 59 -13 29 4 -23 13 -23 14 -4 15 11 0 25 -5 32 -12 9 -9 15 -9 24 0 10
10 8 14 -10 18 -12 4 -22 10 -22 14 0 5 -9 12 -20 15 -11 3 -20 12 -20 20 0 7
-8 16 -17 18 -10 2 -4 2 12 0 79 -11 105 -12 100 -3 -3 6 -12 10 -18 10 -7 1
-25 8 -42 16 -16 8 -22 12 -12 9 9 -2 17 0 17 5 0 10 -29 21 -66 25 -14 1 -28
6 -32 10 -4 5 0 6 9 3 9 -4 22 -2 30 3 11 7 11 9 -3 9 -9 0 -20 5 -24 11 -6
11 -2 10 56 -9 8 -2 3 6 -11 19 -14 13 -24 30 -22 37 3 7 -4 12 -16 12 -12 0
-21 5 -21 11 0 6 8 8 18 5 80 -24 91 -17 24 16 -23 11 -28 16 -12 12 17 -4 10
4 -23 25 -26 17 -52 31 -58 31 -6 0 -8 4 -5 9 6 10 -23 26 -39 22 -5 -1 -4 3
3 10 9 10 15 10 24 1 15 -15 32 -16 23 -2 -3 6 -1 10 5 10 6 0 9 4 6 9 -7 10
22 24 34 16 5 -3 11 -1 15 5 3 5 -1 10 -10 10 -9 0 -14 4 -11 9 3 5 -1 12 -10
15 -8 3 -12 11 -9 16 4 6 3 9 -2 8 -4 -2 -19 5 -33 15 l-24 17 23 0 c14 0 33
-8 44 -18 19 -16 20 -16 14 1 -8 21 -3 22 18 0 10 -10 19 -12 23 -6 4 5 15 14
26 20 16 9 17 11 2 16 -10 4 -15 3 -11 -3 3 -6 2 -10 -3 -10 -5 0 -12 11 -14
24 -4 19 0 26 16 29 12 2 1 4 -24 4 -50 0 -86 16 -145 63 l-40 33 45 -6 c25
-4 74 -18 109 -32 36 -13 66 -23 68 -21 3 2 -34 23 -82 46 -47 24 -88 47 -91
51 -3 5 12 9 33 9 36 1 37 2 19 15 -15 11 -16 15 -5 16 8 0 -5 9 -29 20 -24
10 -41 23 -37 28 3 6 -9 14 -27 19 l-33 9 48 13 c26 7 47 15 47 19 0 3 17 6
37 5 21 0 49 3 63 6 l25 7 -30 8 c-16 4 -48 12 -70 18 l-40 10 30 8 c29 6 29
7 4 8 -15 0 -32 8 -39 16 -14 17 -35 21 -25 5 7 -12 -15 -13 -33 -1 -17 10 38
24 82 21 19 -1 26 2 21 10 -4 6 -14 9 -22 6 -8 -4 -11 -1 -8 5 4 6 13 8 21 5
7 -3 16 -1 19 4 4 6 -1 10 -9 10 -9 0 -16 5 -16 10 0 6 9 10 21 10 11 0 18 4
15 9 -4 5 0 11 6 14 7 2 0 8 -17 12 -16 4 -48 13 -70 21 -34 12 -36 14 -9 10
17 -3 44 -1 60 3 l29 8 -50 25 c-27 13 -49 30 -47 36 1 7 -3 12 -8 12 -13 0
-9 32 5 42 5 4 -3 12 -19 18 -39 14 -79 47 -65 52 7 2 -1 12 -17 23 -16 10
-33 24 -37 32 -4 7 -14 13 -22 13 -8 0 -16 4 -19 8 -3 5 8 8 24 7 38 -2 38 2
-2 19 -23 10 -27 15 -14 15 10 1 35 -9 55 -21 20 -11 30 -15 24 -8 -20 22 -16
27 20 23 24 -3 29 -2 17 6 -8 6 -23 11 -32 11 -9 0 -20 4 -23 10 -4 6 6 7 26
3 l32 -6 -21 21 c-11 11 -39 26 -61 32 -52 14 -53 24 -1 17 22 -3 40 -2 40 3
0 6 -46 22 -75 24 -5 1 -20 11 -34 23 -13 13 -28 23 -32 23 -5 0 -9 5 -9 11 0
6 9 8 23 3 34 -10 14 6 -40 31 -46 23 -47 23 -18 25 l30 2 -32 11 c-36 14 -59
33 -28 24 11 -3 38 -9 60 -12 30 -5 36 -4 25 4 -12 8 -5 11 28 11 47 0 56 22
12 28 -15 3 -19 6 -11 11 8 5 -6 16 -39 32 -27 13 -50 27 -50 31 0 5 -9 8 -20
8 -11 0 -20 5 -20 10 0 6 11 10 25 10 14 0 25 5 25 11 0 7 11 8 30 4 23 -5 30
-3 30 8 0 9 -6 17 -12 20 -7 2 -1 2 14 0 15 -3 35 1 45 7 15 9 12 10 -14 6
-25 -4 -33 -2 -33 10 0 8 -4 13 -8 10 -4 -2 -14 -1 -22 4 -16 10 -6 16 40 23
21 3 19 5 -14 12 -26 5 -45 4 -57 -4 -11 -6 -27 -11 -36 -11 -11 1 -6 6 13 14
48 21 47 31 -2 30 -25 0 -47 3 -50 8 -3 4 5 8 18 8 13 1 34 7 48 15 24 14 22
14 -35 15 -60 1 -60 1 -38 19 12 10 20 21 17 23 -2 3 8 4 23 2 24 -4 25 -3 8
5 -22 10 -9 15 33 11 12 -1 22 3 22 9 0 6 -6 11 -12 12 -7 0 -4 4 7 9 19 8 19
9 1 9 -24 1 -11 17 19 24 13 3 8 5 -13 6 -20 1 -31 5 -27 11 4 6 11 7 17 4 6
-4 8 -2 5 3 -4 6 -36 14 -73 18 -58 6 -63 8 -47 21 10 7 29 14 42 14 24 0 24
0 5 15 -10 8 -41 15 -67 15 -31 0 -46 4 -42 11 4 6 19 7 37 4 19 -5 28 -3 24
3 -3 5 9 13 27 18 29 7 26 8 -33 14 -36 4 -60 7 -55 8 6 1 3 7 -5 12 -13 8
-12 10 3 10 9 0 17 -6 17 -12 0 -8 3 -9 8 -3 12 17 60 45 79 46 10 0 0 7 -22
16 l-39 17 29 12 c29 13 29 13 5 14 -23 1 -23 2 -8 14 16 12 16 14 -5 34 -13
12 -29 22 -35 22 -7 0 -12 4 -12 8 0 9 -81 52 -99 52 -6 0 -11 4 -11 9 0 5 -8
12 -17 14 -16 4 -16 5 0 6 39 2 8 26 -44 35 -48 7 -51 10 -30 18 14 5 30 7 36
4 7 -2 18 0 26 5 12 8 12 10 0 18 -11 7 -9 10 9 13 42 6 33 25 -10 21 -28 -2
-39 1 -37 10 1 7 -7 11 -23 9 -24 -3 -24 -2 -5 13 20 15 20 15 0 9 -16 -6 -18
-4 -8 6 10 11 16 11 31 -3 10 -9 25 -17 33 -17 8 1 4 6 -8 13 -21 12 -22 14
-8 34 13 18 12 22 -4 37 -11 10 -22 13 -25 8 -4 -7 -15 -6 -30 1 -20 10 -22
15 -13 26 9 12 9 13 0 7 -7 -4 -13 -3 -13 3 0 5 8 12 18 14 15 4 15 5 0 6 -9
0 -29 6 -45 13 -15 6 -34 12 -41 14 -18 3 -28 14 -14 14 19 0 14 18 -5 23 -10
3 -1 5 20 6 24 1 36 5 32 12 -5 7 5 8 32 3 47 -8 41 0 -10 14 -21 6 -35 6 -32
1 9 -13 -15 -10 -50 6 l-30 14 33 -6 c37 -6 43 3 10 17 -18 8 -15 9 17 5 22
-2 32 -2 23 1 -25 8 -22 24 5 25 18 1 16 3 -8 9 -16 5 -43 13 -60 18 l-30 10
33 1 c17 1 32 6 32 11 0 6 -3 9 -7 8 -5 -1 -30 5 -57 12 -43 11 -46 14 -28 21
28 11 29 23 1 16 -45 -12 -97 29 -70 56 9 9 14 9 20 -2 6 -9 11 -10 15 -2 4 6
-4 15 -21 21 -59 22 -59 22 -33 30 18 6 20 8 7 9 -11 1 -30 10 -44 21 -14 11
-36 20 -48 20 -27 0 -29 27 -2 36 16 5 17 8 6 15 -10 6 -4 9 19 9 17 0 32 5
32 10 0 6 7 10 16 10 27 0 6 17 -23 18 -44 2 -88 18 -85 31 1 7 -3 11 -10 10
-7 -1 -22 0 -33 1 -17 2 -17 3 5 10 19 7 13 8 -27 8 -29 -1 -56 1 -60 5 -3 4
5 7 18 7 13 0 31 5 39 11 13 9 13 10 0 8 -8 -1 -33 0 -55 1 -29 2 -33 4 -15 7
14 3 31 9 37 15 7 6 21 7 30 3 31 -12 104 -15 97 -4 -4 7 7 8 33 4 l38 -6 -45
25 c-25 14 -38 26 -30 26 8 1 -3 10 -25 21 -22 10 -33 19 -25 19 20 0 -36 30
-75 40 -29 8 -29 8 10 10 l40 2 -33 9 c-18 5 -31 13 -28 17 2 4 -10 14 -27 22
-27 12 -29 15 -12 18 69 11 71 14 17 28 -80 21 -96 33 -47 35 39 1 38 2 -15
12 -41 7 -50 11 -35 17 17 6 14 8 -15 14 -19 3 -55 7 -80 7 l-45 1 35 8 c23 5
28 8 15 10 -13 2 -7 5 15 10 28 6 30 8 10 9 -14 1 -32 6 -40 11 -12 8 -9 10
13 10 16 0 26 4 22 9 -3 5 7 12 22 14 27 4 -124 11 -159 8 -10 -1 -18 3 -18 8
0 7 28 11 73 11 95 0 120 16 42 25 -51 7 -56 9 -41 21 16 11 14 13 -20 19 -22
3 -47 10 -56 16 -10 5 -32 9 -50 10 -31 1 -32 1 -8 9 29 9 24 10 -77 13 -34 1
-59 5 -57 9 3 5 15 8 27 9 21 0 21 1 2 9 -11 5 -35 9 -53 9 -19 1 -31 5 -27
11 4 6 -7 10 -25 10 -21 0 -29 4 -24 12 5 8 2 9 -11 4 -21 -8 -87 3 -80 14 2
4 -8 5 -23 2 -38 -7 -23 6 34 28 40 16 44 19 22 20 -15 0 -28 6 -30 15 -3 13
-6 13 -30 1 -36 -19 -37 -6 -2 15 l26 16 -26 7 c-16 4 -24 11 -20 18 7 11 0
10 -66 -7 -19 -5 -17 -1 10 14 39 22 32 26 -18 11 -29 -8 -32 -7 -22 5 10 12
9 15 -8 15 -11 0 -32 -4 -46 -10 -14 -5 -26 -7 -26 -5 0 3 12 10 26 16 15 5
25 12 22 15 -3 2 -18 0 -33 -6 -22 -8 -26 -8 -22 4 5 12 0 13 -25 5 -18 -5
-34 -7 -36 -4 -3 2 -13 0 -22 -5 -13 -7 -20 -6 -24 5 -6 16 -32 10 -55 -12 -7
-8 -16 -11 -19 -8 -4 3 0 11 8 16 15 10 2 9 -81 -7 -22 -4 -29 -3 -25 5 4 7
-1 11 -13 11 -11 0 -23 -4 -26 -10 -12 -20 -25 -9 -19 15 5 20 3 24 -10 19 -9
-3 -16 -2 -16 4 0 6 -9 8 -20 5 -25 -7 -26 12 -2 27 15 10 15 11 -3 5 -53 -18
-59 -19 -52 -2 8 22 5 21 -44 -4 -23 -11 -38 -16 -34 -10 4 8 -6 9 -36 5 -25
-4 -40 -3 -36 2 3 6 -9 8 -29 6 -21 -3 -34 0 -34 7 0 6 -12 11 -27 11 -26 0
-26 0 -7 22 11 13 12 18 4 12 -8 -5 -28 -16 -45 -23 l-30 -13 34 36 c37 38 36
46 -2 22 -12 -8 -38 -17 -57 -21 -29 -6 -33 -5 -22 6 16 17 16 34 0 22 -19
-14 -41 -10 -45 7 -4 13 -3 13 6 0 13 -18 15 -1 2 18 -6 10 -12 7 -24 -11 -14
-22 -57 -44 -57 -29 0 3 10 17 22 31 13 14 16 20 8 14 -23 -21 -33 -15 -25 14
5 23 4 25 -9 14 -9 -8 -16 -10 -16 -5 0 4 -7 -1 -16 -12 -14 -18 -15 -18 -9 6
l6 25 -19 -24 c-10 -13 -25 -22 -33 -19 -7 2 -35 -3 -60 -13 -46 -16 -47 -16
-52 3 -5 18 -7 18 -35 4 -42 -22 -118 -33 -107 -17 5 10 3 11 -11 4 -11 -6
-32 -9 -49 -7 -16 1 -36 3 -43 3 -7 1 -10 6 -6 12 4 8 -8 10 -40 8 -25 -2 -46
-1 -46 2 0 4 -9 5 -20 2 -24 -6 -54 22 -46 43 3 8 2 12 -4 9 -6 -3 -10 -13
-10 -21 0 -12 -3 -12 -14 -2 -11 11 -11 16 1 34 12 19 12 22 -3 28 -9 3 -23 1
-30 -5 -12 -10 -13 -8 -8 6 6 15 1 14 -37 -6 -26 -13 -39 -16 -33 -8 6 8 14
23 18 33 5 16 4 17 -9 6 -12 -10 -15 -10 -15 0 0 8 -4 9 -12 3 -16 -12 -88
-32 -108 -31 -8 1 -36 -13 -62 -31 -31 -21 -56 -31 -77 -29 -17 1 -31 4 -31 5
0 2 21 16 48 33 51 32 49 35 -16 20 -23 -6 -95 -12 -160 -14 -64 -3 -126 -8
-137 -11 -17 -6 -16 -3 5 14 21 18 21 20 5 14 -11 -3 -29 -12 -40 -20 -26 -17
-36 -17 -29 2 7 16 -11 21 -20 6 -3 -5 -15 -7 -26 -4 -17 5 -18 8 -8 22 12 14
11 15 -5 2 -24 -19 -197 -24 -337 -9 -58 6 -132 12 -165 14 -33 2 -64 4 -70 4
-5 0 0 9 13 20 22 18 22 19 2 33 -11 7 -17 17 -13 21 4 4 -5 2 -21 -4 -16 -6
-31 -8 -34 -6 -3 3 3 8 12 12 9 3 16 10 16 15 0 4 -7 5 -17 2 -9 -4 -14 -2
-10 3 9 15 -125 6 -174 -11 -51 -18 -63 -13 -20 10 17 8 31 18 31 20 0 3 -19
-4 -42 -16 -31 -16 -65 -23 -118 -25 -41 -1 -69 0 -62 3 28 11 9 21 -39 19
-29 -2 -45 1 -37 5 9 6 3 10 -19 15 -18 4 -30 10 -28 15 3 4 -32 8 -77 8 -46
0 -128 4 -183 10 -55 6 -120 12 -145 13 -30 2 -44 7 -43 16 2 6 -6 12 -16 12
-33 0 -31 15 2 30 l32 15 -75 6 c-41 3 -108 12 -148 19 -66 11 -71 13 -55 26
16 13 15 14 -12 7 -38 -10 -175 -7 -235 4 -38 8 -42 10 -22 17 24 8 30 26 10
26 -9 0 -8 4 2 10 11 7 7 10 -19 10 -32 0 -99 18 -111 30 -12 12 -103 39 -113
33 -6 -4 -8 0 -4 10 5 13 1 17 -18 17 -16 0 -25 6 -25 15 0 9 -9 15 -25 15
-14 0 -25 5 -25 10 0 6 -10 10 -22 10 -17 0 -19 3 -10 9 10 6 3 10 -22 15 -20
4 -36 11 -36 15 0 5 -19 11 -42 15 -51 8 -64 16 -47 27 9 6 -1 9 -28 9 -24 0
-43 5 -43 11 0 5 -14 15 -31 21 -21 7 -27 13 -18 18 8 6 -5 14 -37 23 -43 14
-45 16 -19 17 28 1 27 2 -15 16 -25 9 -49 20 -55 25 -5 5 -20 9 -35 10 -20 0
-21 2 -7 7 13 6 6 11 -30 22 -26 7 -54 20 -61 27 -7 7 -20 13 -28 13 -8 0 -14
5 -14 10 0 6 -10 10 -22 11 -26 0 -140 37 -120 38 27 2 -1 21 -30 21 -27 0
-29 2 -17 16 13 15 11 17 -18 12 -26 -4 -30 -2 -22 9 7 7 19 13 28 14 9 0 3 5
-13 9 -16 5 -33 7 -38 4 -4 -3 -8 2 -8 10 0 9 -7 16 -16 16 -8 0 -12 5 -9 10
3 6 -2 10 -12 10 -15 0 -16 2 -3 10 12 8 8 10 -15 11 -16 1 -39 2 -50 1 -12
-1 -1 9 25 23 44 24 44 24 15 25 -20 0 -26 3 -17 9 16 10 -144 25 -174 16 -10
-3 -6 1 10 8 l29 14 -27 7 c-16 4 -24 11 -20 18 5 7 -1 9 -18 5 -27 -7 -48 16
-25 27 7 4 -1 4 -18 1 l-30 -5 22 19 c12 10 19 21 16 25 -4 3 0 6 7 6 7 0 11
2 8 5 -2 3 -27 -2 -54 -10 -64 -19 -71 -19 -77 5 -3 12 -14 20 -26 20 -12 0
-21 5 -21 10 0 6 -9 10 -20 10 -11 0 -19 5 -18 12 2 7 -12 15 -32 18 l-35 6
30 12 c28 11 26 11 -28 9 -31 -1 -57 1 -57 6 0 4 6 7 13 7 6 0 3 6 -8 13 -19
11 -17 12 15 18 l35 6 -40 2 c-48 2 -59 9 -63 41 -1 13 -13 35 -25 49 -12 13
-16 21 -9 17 16 -9 16 6 0 23 -11 10 -9 11 7 6 16 -6 16 -3 -5 14 -28 23 -44
27 -35 9 4 -7 0 -5 -8 5 -8 9 -20 17 -28 17 -8 0 -6 6 7 15 18 14 18 14 -6 15
-14 0 -32 5 -40 10 -12 7 -8 10 15 10 l30 1 -23 19 c-12 10 -28 21 -35 23 -9
4 -9 8 2 15 12 8 11 11 -5 15 -10 2 -2 3 19 2 46 -4 47 1 5 19 -18 8 -26 15
-18 15 25 2 -10 21 -40 21 -14 1 -38 7 -55 15 l-30 13 33 1 c18 1 31 -3 28 -8
-4 -5 5 -4 19 2 33 16 32 25 -2 21 -16 -2 -20 -1 -10 2 34 11 12 33 -41 40
-29 3 -52 22 -52 40 0 8 -10 14 -22 14 -13 0 -37 9 -54 19 -17 10 -40 21 -50
24 -11 3 -4 5 16 6 19 0 60 -6 90 -14 68 -18 99 -18 45 0 l-40 14 40 -4 40 -4
-36 12 c-19 6 -62 26 -95 42 -73 37 -68 34 -63 39 2 3 30 -8 62 -25 31 -16 72
-29 90 -28 29 1 25 4 -41 35 -67 31 -86 54 -44 54 24 0 -87 60 -112 60 -12 0
-29 7 -39 14 -18 14 -18 14 0 18 13 3 7 8 -19 18 -45 17 -46 22 -13 48 l25 20
-40 -2 c-22 -1 -40 1 -40 6 0 4 15 9 33 9 21 1 25 3 11 6 -21 4 -42 43 -23 43
4 0 6 6 3 14 -3 8 2 16 13 19 10 3 2 5 -17 6 -31 1 -33 3 -17 15 21 16 22 26
3 26 -21 0 -25 23 -7 38 15 12 14 13 0 9 -12 -4 -18 2 -22 21 -3 15 -1 30 5
33 7 4 6 8 -1 10 -19 7 -21 48 -3 60 16 10 16 10 0 5 -12 -4 -20 5 -29 32 -7
20 -12 41 -11 46 2 5 -2 12 -8 16 -6 4 -12 17 -13 28 -1 12 -4 22 -8 22 -12 0
-17 39 -5 44 7 3 6 5 -2 5 -8 1 -25 10 -39 21 -47 37 -108 26 -185 -33 -25
-20 -49 -32 -53 -29 -4 4 -5 3 -4 -3 5 -16 -21 -56 -32 -50 -5 4 -9 3 -8 -2 4
-18 -32 -83 -43 -77 -7 4 -8 3 -4 -4 9 -16 -25 -73 -38 -65 -6 4 -5 -1 2 -10
14 -16 8 -42 -7 -33 -4 3 -8 -8 -9 -24 -1 -43 -11 -70 -25 -67 -7 1 -11 -8
-10 -21 2 -13 -4 -35 -12 -50 -12 -23 -14 -24 -15 -7 -1 18 -2 18 -11 3 -5 -9
-16 -15 -23 -12 -9 3 -17 -3 -21 -16 -5 -17 -10 -19 -21 -9 -11 9 -14 8 -14
-4 0 -8 -7 -20 -16 -27 -8 -8 -14 -9 -13 -4 4 23 -2 45 -11 39 -6 -4 -8 -9 -6
-13 2 -4 -2 -16 -10 -27 -14 -18 -14 -18 -14 5 0 22 -1 22 -19 6 -16 -15 -19
-15 -31 -1 -7 8 -20 15 -30 15 -9 0 -23 12 -31 27 l-14 26 -5 -34 c-3 -21 -11
-34 -20 -34 -8 0 -15 5 -15 12 0 25 -14 24 -21 -3 -7 -25 -8 -26 -15 -9 -7 19
-8 19 -15 -2 -3 -13 -11 -23 -16 -23 -5 0 -6 -5 -2 -12 4 -7 3 -8 -5 -4 -6 4
-10 10 -7 14 2 4 0 16 -5 27 -8 19 -8 19 -15 -2 -3 -13 -11 -23 -16 -23 -6 0
-8 7 -4 15 3 8 1 15 -3 15 -5 0 -7 10 -5 23 3 14 -1 11 -11 -10 -15 -33 -30
-47 -19 -18 3 8 2 20 -2 27 -6 9 -10 6 -15 -12 l-7 -25 -7 22 c-4 13 -11 20
-16 17 -5 -3 -9 0 -9 5 0 19 -30 12 -31 -6 0 -12 -2 -13 -6 -5 -3 7 1 19 7 27
9 11 10 15 1 15 -7 0 -9 4 -6 10 4 6 -1 7 -11 3 -13 -5 -16 -3 -11 9 7 19 -32
30 -56 17 -24 -14 -29 18 -6 35 27 18 9 30 -33 21 -26 -6 -30 -5 -25 9 4 9 1
16 -6 16 -7 0 -1 10 13 21 l25 20 -32 -15 c-27 -13 -32 -13 -37 -1 -3 9 0 12
8 9 8 -3 17 -1 21 5 4 7 -5 11 -24 11 -33 0 -44 26 -16 36 21 9 19 19 -10 34
-13 7 -22 17 -18 23 3 5 -3 6 -16 2 -22 -7 -30 10 -8 18 6 3 1 6 -13 7 -25 1
-25 1 -5 17 15 11 15 14 3 10 -9 -3 -24 1 -35 9 -10 8 -13 13 -8 12 10 -3 15
4 15 22 0 6 -11 8 -25 4 -27 -7 -33 4 -12 25 10 10 9 11 -6 5 -20 -7 -50 13
-40 29 3 6 1 7 -6 3 -6 -4 -24 4 -41 17 -16 14 -51 32 -78 41 -51 17 -119 18
-119 1z m398 -246 c22 -11 17 -31 -6 -23 -8 4 -13 10 -10 14 3 5 -1 11 -7 13
-7 3 -9 6 -5 6 5 1 17 -4 28 -10z m189 -240 c0 -5 -4 -9 -10 -9 -5 0 -10 7
-10 16 0 8 5 12 10 9 6 -3 10 -10 10 -16z m1220 -79 c0 -5 -7 -10 -16 -10 -8
0 -12 5 -9 10 3 6 10 10 16 10 5 0 9 -4 9 -10z m266 -385 l29 -15 -32 0 c-23
0 -33 5 -33 15 0 18 1 18 36 0z m199 -293 c-3 -3 -11 0 -18 7 -9 10 -8 11 6 5
10 -3 15 -9 12 -12z m-2645 -1112 c-6 -11 -13 -20 -16 -20 -2 0 0 9 6 20 6 11
13 20 16 20 2 0 0 -9 -6 -20z m156 -180 c0 -11 -6 -20 -13 -20 -11 0 -11 5 -3
20 6 11 12 20 13 20 2 0 3 -9 3 -20z m47 -135 c-3 -9 -8 -14 -10 -11 -3 3 -2
9 2 15 9 16 15 13 8 -4z m9027 -440 c-7 -8 -18 -15 -24 -15 -6 0 -2 7 8 15 25
19 32 19 16 0z m-8802 -282 c-7 -16 -17 -35 -23 -43 -6 -8 -17 -27 -25 -42
-19 -40 -23 -28 -5 13 36 76 81 139 53 72z m42 -57 c0 -2 -8 -10 -17 -17 -16
-13 -17 -12 -4 4 13 16 21 21 21 13z m90 -30 c0 -2 -8 -10 -17 -17 -16 -13
-17 -12 -4 4 13 16 21 21 21 13z m-157 -26 c-3 -10 -12 -25 -19 -31 -12 -10
-13 -8 -8 7 7 19 24 44 29 44 2 0 1 -9 -2 -20z m47 -3 c0 -2 -15 -16 -32 -33
l-33 -29 29 33 c28 30 36 37 36 29z m9317 -13 c-3 -3 -12 -4 -19 -1 -8 3 -5 6
6 6 11 1 17 -2 13 -5z m-9212 -160 c-11 -9 -41 -26 -67 -40 -26 -13 -49 -28
-53 -34 -3 -5 -14 -10 -23 -10 -21 0 10 22 93 67 66 36 81 41 50 17z m9322 0
c-3 -3 -12 -4 -19 -1 -8 3 -5 6 6 6 11 1 17 -2 13 -5z m-9203 -65 c-3 -6 -25
-19 -49 -29 -42 -18 -67 -40 -45 -40 6 0 8 -4 5 -10 -3 -5 -11 -10 -16 -10 -6
0 -7 5 -3 12 5 8 2 9 -9 5 -10 -4 -25 -10 -34 -13 -17 -5 -17 -5 -1 8 71 57
172 108 152 77z m-9 -199 c-3 -5 -12 -10 -18 -10 -7 0 -6 4 3 10 19 12 23 12
15 0z m9485 -3 c8 -3 31 -11 50 -16 l35 -11 -36 5 c-50 7 -134 35 -94 31 17
-2 37 -6 45 -9z m-9495 -47 c-3 -5 -11 -10 -16 -10 -6 0 -7 5 -4 10 3 6 11 10
16 10 6 0 7 -4 4 -10z m-20 -50 c-9 -16 -20 -30 -26 -30 -6 0 -1 14 11 30 12
17 23 30 26 30 2 0 -2 -13 -11 -30z m59 21 c3 -5 -2 -15 -12 -22 -15 -12 -16
-12 -5 2 7 9 10 19 6 22 -3 4 -4 7 0 7 3 0 8 -4 11 -9z m196 -46 c-7 -8 -18
-15 -24 -15 -6 0 -2 7 8 15 25 19 32 19 16 0z m-303 -50 c-14 -30 -27 -33 -22
-5 5 28 15 41 25 35 4 -3 3 -16 -3 -30z m283 -9 c0 -3 -4 -8 -10 -11 -5 -3
-10 -1 -10 4 0 6 5 11 10 11 6 0 10 -2 10 -4z m30 -16 c0 -5 -5 -10 -11 -10
-5 0 -7 5 -4 10 3 6 8 10 11 10 2 0 4 -4 4 -10z m9363 -27 c-7 -2 -21 -2 -30
0 -10 3 -4 5 12 5 17 0 24 -2 18 -5z m-9557 -68 c-9 -9 -16 -13 -16 -8 0 5 5
14 12 21 6 6 14 10 16 7 2 -2 -3 -11 -12 -20z m244 5 c-35 -24 -54 -31 -30
-11 14 11 30 21 35 21 6 0 3 -5 -5 -10z m-26 -44 c-3 -7 -17 -18 -32 -25 l-27
-11 28 25 c32 28 39 31 31 11z m31 -32 c-11 -8 -19 -19 -18 -23 3 -11 -96 -95
-103 -88 -3 2 17 24 43 47 28 24 38 37 23 30 -23 -11 -24 -11 -10 3 14 15 70
47 80 47 3 -1 -4 -8 -15 -16z m-304 -71 c-9 -16 -10 -15 -11 8 0 14 3 29 8 33
12 12 14 -22 3 -41z m161 -25 c-7 -7 -12 -8 -12 -2 0 14 12 26 19 19 2 -3 -1
-11 -7 -17z m253 -48 c-3 -5 -11 -10 -16 -10 -6 0 -7 5 -4 10 3 6 11 10 16 10
6 0 7 -4 4 -10z m-64 -33 c-10 -9 -11 -8 -5 6 3 10 9 15 12 12 3 -3 0 -11 -7
-18z m9482 9 c21 4 21 4 2 -5 -23 -10 -35 -5 -34 12 0 9 2 9 5 1 3 -7 15 -10
27 -8z m-9668 -25 c-3 -6 -11 -11 -17 -11 -6 0 -6 6 2 15 14 17 26 13 15 -4z
m274 16 c-2 -1 -13 -9 -24 -17 -19 -14 -19 -14 -6 3 7 9 18 17 24 17 6 0 8 -1
6 -3z m-219 -41 c0 -2 -8 -10 -17 -17 -16 -13 -17 -12 -4 4 13 16 21 21 21 13z
m294 -50 c-10 -8 -21 -12 -24 -10 -5 6 21 24 34 24 6 0 1 -6 -10 -14z m-252
-28 c-7 -7 -12 -8 -12 -2 0 14 12 26 19 19 2 -3 -1 -11 -7 -17z m268 -28 c0
-5 -9 -10 -19 -10 -22 0 -37 -16 -20 -22 6 -2 1 -12 -10 -22 -12 -11 -21 -14
-21 -8 0 6 4 13 10 17 5 3 7 12 4 20 -4 9 3 18 17 24 32 13 39 13 39 1z m-160
-14 c0 -2 -8 -10 -17 -17 -16 -13 -17 -12 -4 4 13 16 21 21 21 13z m70 -19 c0
-8 -11 -19 -25 -25 -31 -14 -33 0 -2 21 28 20 27 20 27 4z m0 -35 c0 -5 -11
-19 -25 -32 -14 -13 -25 -19 -25 -14 0 5 -5 2 -10 -6 -8 -13 -10 -13 -10 2 0
9 12 26 26 37 28 22 44 27 44 13z m45 -38 c-19 -14 -35 -10 -35 8 0 5 6 8 14
5 8 -3 17 2 21 11 6 14 8 14 13 3 2 -8 -3 -20 -13 -27z m-21 -58 c-16 -13 -31
-22 -34 -19 -3 3 8 15 25 28 38 31 46 23 9 -9z m176 -21 c0 -8 -4 -15 -10 -15
-5 0 -7 7 -4 15 4 8 8 15 10 15 2 0 4 -7 4 -15z m-90 -59 c0 -3 -4 -8 -10 -11
-5 -3 -10 -1 -10 4 0 6 5 11 10 11 6 0 10 -2 10 -4z m96 -62 c-4 -9 -9 -15
-11 -12 -3 3 -3 13 1 22 4 9 9 15 11 12 3 -3 3 -13 -1 -22z m-133 -9 c-3 -9
-8 -14 -10 -11 -3 3 -2 9 2 15 9 16 15 13 8 -4z m80 -20 c-3 -9 -8 -14 -10
-11 -3 3 -2 9 2 15 9 16 15 13 8 -4z m22 -41 c-12 -24 -15 -25 -15 -8 0 11 5
25 12 32 18 18 20 8 3 -24z m-35 -38 c0 -6 -9 -22 -20 -36 -18 -23 -20 -23
-20 -5 0 38 12 64 26 58 8 -3 14 -10 14 -17z m71 -67 c-5 -13 -19 -33 -32 -44
l-23 -20 17 25 c9 14 22 36 27 49 13 31 24 22 11 -10z m103 -10 c-28 -31 -37
-22 -13 13 13 18 25 26 27 19 2 -7 -4 -21 -14 -32z m-177 9 c-2 -13 -9 -34
-15 -48 -11 -25 -11 -25 -11 7 -1 17 2 38 5 47 9 24 25 19 21 -6z m133 -51 c0
-2 -10 -12 -22 -23 l-23 -19 19 23 c18 21 26 27 26 19z m-81 -50 c-12 -46 -20
-48 -16 -3 1 19 5 32 10 29 4 -2 7 1 7 8 0 7 2 10 5 8 2 -3 0 -22 -6 -42z m48
-29 c-31 -41 -57 -93 -56 -110 0 -7 5 -2 10 11 5 13 12 21 15 18 8 -7 -14 -47
-26 -47 -5 0 -7 -8 -4 -17 5 -15 4 -16 -5 -3 -6 8 -11 23 -11 33 0 21 26 75
47 95 8 8 21 26 30 39 9 13 18 22 20 19 3 -3 -6 -20 -20 -38z m133 12 c0 -5
-5 -10 -11 -10 -5 0 -7 5 -4 10 3 6 8 10 11 10 2 0 4 -4 4 -10z m76 -85 c-7
-19 -15 -38 -19 -41 -7 -8 8 50 18 66 12 20 13 10 1 -25z m4 -58 c0 -7 -7 -22
-15 -33 -13 -17 -14 -16 -4 14 11 33 19 41 19 19z m11 -68 c-9 -22 -10 -22
-10 -3 -1 11 2 24 6 27 12 12 14 0 4 -24z m-26 -51 c-8 -36 -23 -59 -20 -31 2
25 15 63 21 63 3 0 3 -15 -1 -32z m-82 7 c-3 -9 -8 -14 -10 -11 -3 3 -2 9 2
15 9 16 15 13 8 -4z m267 -18 c0 -2 -14 -16 -32 -33 l-31 -29 23 33 c20 27 40
42 40 29z m4988 -154 c30 -22 35 -43 11 -43 -6 0 -8 4 -5 9 4 5 -9 19 -27 30
-18 11 -42 30 -53 43 l-19 22 30 -18 c17 -10 45 -30 63 -43z m4267 37 c18 -8
18 -9 -5 -9 -14 0 -34 4 -45 9 -18 8 -18 9 5 9 14 0 34 -4 45 -9z m-4732 -299
c37 -29 67 -57 67 -63 0 -9 -107 77 -150 121 -13 13 -13 14 0 5 8 -6 45 -34
83 -63z m-52 2 c13 -16 12 -17 -3 -4 -10 7 -18 15 -18 17 0 8 8 3 21 -13z
m130 -20 c13 -16 12 -17 -3 -4 -10 7 -18 15 -18 17 0 8 8 3 21 -13z m40 -30
c13 -16 12 -17 -3 -4 -17 13 -22 21 -14 21 2 0 10 -8 17 -17z m4819 -217 c0
-3 -4 -8 -10 -11 -5 -3 -10 -1 -10 4 0 6 5 11 10 11 6 0 10 -2 10 -4z m45 -6
c19 -8 19 -9 -2 -9 -12 -1 -25 4 -28 9 -7 12 2 12 30 0z m-1505 -24 c0 -2 -8
-10 -17 -17 -16 -13 -17 -12 -4 4 13 16 21 21 21 13z m1534 -97 c-7 -11 -34
-12 -34 -1 0 14 11 21 26 15 8 -3 11 -9 8 -14z m-5919 -179 c12 -19 -12 -10
-31 11 -19 22 -19 22 3 10 12 -6 25 -16 28 -21z m4488 -25 c-3 -9 -8 -14 -10
-11 -3 3 -2 9 2 15 9 16 15 13 8 -4z m-4552 -101 c9 -11 2 -9 -18 6 -18 13
-33 25 -33 27 0 8 38 -17 51 -33z m4362 -11 c-7 -2 -19 -2 -25 0 -7 3 -2 5 12
5 14 0 19 -2 13 -5z m-7196 -25 c-3 -8 -6 -5 -6 6 -1 11 2 17 5 13 3 -3 4 -12
1 -19z m8830 -114 c-3 -3 -12 -4 -19 -1 -8 3 -5 6 6 6 11 1 17 -2 13 -5z
m-6267 -189 c7 -9 8 -15 2 -15 -5 0 -12 7 -16 15 -3 8 -4 15 -2 15 2 0 9 -7
16 -15z m30 -78 c0 -4 -11 0 -25 10 -13 10 -25 22 -25 26 0 4 11 0 25 -10 13
-10 25 -22 25 -26z m6310 6 c12 -13 -56 10 -70 23 -12 12 -8 12 25 -2 22 -9
42 -19 45 -21z m-6405 -13 c10 -11 15 -20 11 -20 -4 0 -19 9 -33 20 -17 13
-20 20 -11 20 8 0 23 -9 33 -20z m45 -40 c0 -5 -2 -10 -4 -10 -3 0 -8 5 -11
10 -3 6 -1 10 4 10 6 0 11 -4 11 -10z m5126 -49 c-21 -22 -35 -44 -32 -50 4
-7 1 -9 -8 -5 -9 3 -16 8 -16 10 0 8 78 84 86 84 5 0 -9 -18 -30 -39z m1244 9
c0 -5 -4 -10 -10 -10 -5 0 -10 5 -10 10 0 6 5 10 10 10 6 0 10 -4 10 -10z
m-6289 -17 c13 -16 12 -17 -3 -4 -10 7 -18 15 -18 17 0 8 8 3 21 -13z m4603
-92 c3 -4 -6 -6 -19 -3 -14 2 -25 6 -25 8 0 8 39 4 44 -5z m-2114 -46 c-7 -9
-15 -13 -17 -11 -6 6 20 36 26 30 2 -2 -2 -10 -9 -19z m2120 -105 c0 -5 -4
-10 -10 -10 -5 0 -10 5 -10 10 0 6 5 10 10 10 6 0 10 -4 10 -10z m-4832 -78
c2 -7 -2 -10 -12 -6 -9 3 -16 11 -16 16 0 13 23 5 28 -10z m5489 -44 c-3 -8
-6 -5 -6 6 -1 11 2 17 5 13 3 -3 4 -12 1 -19z m1038 -26 c-3 -3 -11 0 -18 7
-9 10 -8 11 6 5 10 -3 15 -9 12 -12z m-824 -75 c-10 -9 -11 -8 -5 6 3 10 9 15
12 12 3 -3 0 -11 -7 -18z m-141 9 c0 -2 -8 -10 -17 -17 -16 -13 -17 -12 -4 4
13 16 21 21 21 13z m-5633 -72 c-3 -3 -12 -4 -19 -1 -8 3 -5 6 6 6 11 1 17 -2
13 -5z m-987 -96 c0 -5 -9 -4 -20 2 -11 6 -18 15 -14 21 6 11 34 -7 34 -23z
m998 15 c-10 -2 -26 -2 -35 0 -10 3 -2 5 17 5 19 0 27 -2 18 -5z m4032 -37 c0
-3 -4 -8 -10 -11 -5 -3 -10 -1 -10 4 0 6 5 11 10 11 6 0 10 -2 10 -4z m1820
-66 c0 -5 -5 -10 -11 -10 -5 0 -7 5 -4 10 3 6 8 10 11 10 2 0 4 -4 4 -10z
m765 -128 c-2 -3 -13 1 -22 9 -10 7 -5 -1 11 -19 17 -18 25 -32 19 -32 -17 0
-67 64 -54 68 9 3 9 8 -1 20 -7 10 2 4 20 -12 17 -16 30 -32 27 -34z m-6640
18 c3 -5 2 -10 -4 -10 -5 0 -13 5 -16 10 -3 6 -2 10 4 10 5 0 13 -4 16 -10z
m6046 -27 c-12 -20 -14 -14 -5 12 4 9 9 14 11 11 3 -2 0 -13 -6 -23z m427 -48
c-3 -3 -9 2 -12 12 -6 14 -5 15 5 6 7 -7 10 -15 7 -18z m-6528 -105 c0 -5 -2
-10 -4 -10 -3 0 -8 5 -11 10 -3 6 -1 10 4 10 6 0 11 -4 11 -10z m6530 -45 c0
-5 -5 -3 -10 5 -5 8 -10 20 -10 25 0 6 5 3 10 -5 5 -8 10 -19 10 -25z m-7497
-162 c-7 -2 -19 -2 -25 0 -7 3 -2 5 12 5 14 0 19 -2 13 -5z m-78 -153 c3 -5 2
-10 -4 -10 -5 0 -13 5 -16 10 -3 6 -2 10 4 10 5 0 13 -4 16 -10z m808 -947
c-7 -2 -21 -2 -30 0 -10 3 -4 5 12 5 17 0 24 -2 18 -5z m-50 -90 c-7 -2 -19
-2 -25 0 -7 3 -2 5 12 5 14 0 19 -2 13 -5z"/>
<path d="M3120 9816 c0 -2 6 -9 13 -15 10 -8 14 -7 14 4 0 8 -6 15 -14 15 -7
0 -13 -2 -13 -4z"/>
<path d="M695 9470 c-3 -6 1 -7 9 -4 18 7 21 14 7 14 -6 0 -13 -4 -16 -10z"/>
<path d="M3438 9353 c7 -3 16 -2 19 1 4 3 -2 6 -13 5 -11 0 -14 -3 -6 -6z"/>
<path d="M716 8125 c-9 -26 -7 -32 5 -12 6 10 9 21 6 23 -2 3 -7 -2 -11 -11z"/>
<path d="M7479 7953 c-13 -16 -12 -17 4 -4 16 13 21 21 13 21 -2 0 -10 -8 -17
-17z"/>
<path d="M1178 6863 c6 -3 9 -9 6 -15 -4 -6 2 -5 15 1 27 15 27 16 -7 17 -15
1 -21 -1 -14 -3z"/>
<path d="M10877 6859 c7 -7 15 -10 18 -7 3 3 -2 9 -12 12 -14 6 -15 5 -6 -5z"/>
<path d="M10778 6843 c7 -3 16 -2 19 1 4 3 -2 6 -13 5 -11 0 -14 -3 -6 -6z"/>
<path d="M1159 6743 c-13 -16 -12 -17 4 -4 16 13 21 21 13 21 -2 0 -10 -8 -17
-17z"/>
<path d="M1170 6655 c-7 -8 -8 -15 -2 -15 5 0 15 7 22 15 7 8 8 15 2 15 -5 0
-15 -7 -22 -15z"/>
<path d="M1149 6543 c-13 -16 -12 -17 4 -4 16 13 21 21 13 21 -2 0 -10 -8 -17
-17z"/>
<path d="M1129 6493 c-13 -16 -12 -17 4 -4 16 13 21 21 13 21 -2 0 -10 -8 -17
-17z"/>
<path d="M1092 6475 c4 -4 3 -16 -3 -26 -5 -11 -7 -19 -5 -19 3 0 10 9 16 19
7 15 7 22 -2 27 -7 4 -10 4 -6 -1z"/>
<path d="M1427 6394 c-10 -13 -17 -28 -15 -33 2 -5 13 7 25 25 25 39 17 46
-10 8z"/>
<path d="M1428 6248 c-43 -48 -51 -74 -13 -38 20 19 60 80 52 80 -1 0 -19 -19
-39 -42z"/>
<path d="M1450 6128 c-12 -22 -12 -22 6 -6 10 10 15 20 12 24 -4 3 -12 -5 -18
-18z"/>
<path d="M1356 6083 c-6 -14 -5 -15 5 -6 7 7 10 15 7 18 -3 3 -9 -2 -12 -12z"/>
<path d="M1815 5669 c-4 -6 -5 -12 -2 -15 2 -3 7 2 10 11 7 17 1 20 -8 4z"/>
<path d="M1621 5634 c0 -11 3 -14 6 -6 3 7 2 16 -1 19 -3 4 -6 -2 -5 -13z"/>
<path d="M1990 5351 c-16 -24 -17 -29 -5 -25 17 7 40 43 32 50 -3 3 -15 -9
-27 -25z"/>
<path d="M1844 5188 l-29 -33 33 29 c30 28 37 36 29 36 -2 0 -16 -15 -33 -32z"/>
<path d="M2262 5020 c0 -14 2 -19 5 -12 2 6 2 18 0 25 -3 6 -5 1 -5 -13z"/>
<path d="M7180 5007 c0 -2 15 -16 33 -33 l32 -29 -29 33 c-28 30 -36 37 -36
29z"/>
<path d="M2485 4949 c-4 -6 -5 -12 -2 -15 2 -3 7 2 10 11 7 17 1 20 -8 4z"/>
<path d="M7075 4770 c3 -5 8 -10 11 -10 2 0 4 5 4 10 0 6 -5 10 -11 10 -5 0
-7 -4 -4 -10z"/>
<path d="M6716 4662 c5 -4 23 -18 39 -32 l30 -25 -29 33 c-17 17 -34 32 -40
32 -6 0 -6 -3 0 -8z"/>
<path d="M6590 4617 c0 -2 15 -14 33 -27 l32 -23 -24 26 c-21 23 -41 35 -41
24z"/>
<path d="M6480 4606 c0 -2 8 -10 18 -17 15 -13 16 -12 3 4 -13 16 -21 21 -21
13z"/>
<path d="M6540 4525 c13 -14 26 -25 28 -25 3 0 -5 11 -18 25 -13 14 -26 25
-28 25 -3 0 5 -11 18 -25z"/>
<path d="M10439 4393 c-13 -17 -13 -17 6 -3 11 8 22 16 24 17 2 2 0 3 -6 3 -6
0 -17 -8 -24 -17z"/>
<path d="M11978 4403 c7 -3 16 -2 19 1 4 3 -2 6 -13 5 -11 0 -14 -3 -6 -6z"/>
<path d="M10418 4313 c6 -2 18 -2 25 0 6 3 1 5 -13 5 -14 0 -19 -2 -12 -5z"/>
<path d="M10380 4272 c0 -4 9 -8 20 -9 11 -1 20 2 20 5 0 4 -9 8 -20 9 -11 1
-20 -2 -20 -5z"/>
<path d="M10365 4240 c27 -12 43 -12 25 0 -8 5 -22 9 -30 9 -10 0 -8 -3 5 -9z"/>
<path d="M5961 4067 c2 -1 13 -9 24 -17 19 -14 19 -14 6 3 -7 9 -18 17 -24 17
-6 0 -8 -1 -6 -3z"/>
<path d="M5810 4026 c0 -2 8 -10 18 -17 15 -13 16 -12 3 4 -13 16 -21 21 -21
13z"/>
<path d="M12110 3990 c0 -5 5 -10 11 -10 5 0 7 5 4 10 -3 6 -8 10 -11 10 -2 0
-4 -4 -4 -10z"/>
<path d="M10619 3882 c-13 -15 -12 -16 3 -4 13 10 17 10 21 0 4 -9 6 -9 6 -1
2 20 -16 24 -30 5z"/>
<path d="M11980 3771 c0 -5 7 -12 16 -15 24 -9 27 -7 10 9 -17 17 -26 19 -26
6z"/>
<path d="M5724 3614 c22 -16 40 -19 32 -5 -4 5 0 11 6 14 7 2 -3 4 -22 5 -33
1 -34 0 -16 -14z"/>
<path d="M5777 3529 c7 -7 15 -10 18 -7 3 3 -2 9 -12 12 -14 6 -15 5 -6 -5z"/>
<path d="M12128 3523 c7 -3 16 -2 19 1 4 3 -2 6 -13 5 -11 0 -14 -3 -6 -6z"/>
<path d="M10951 3324 c0 -11 3 -14 6 -6 3 7 2 16 -1 19 -3 4 -6 -2 -5 -13z"/>
<path d="M10498 3223 c7 -3 16 -2 19 1 4 3 -2 6 -13 5 -11 0 -14 -3 -6 -6z"/>
<path d="M12030 3116 c0 -2 7 -7 16 -10 8 -3 12 -2 9 4 -6 10 -25 14 -25 6z"/>
<path d="M10966 3021 c-4 -5 3 -7 14 -4 23 6 26 13 6 13 -8 0 -17 -4 -20 -9z"/>
<path d="M10518 3013 c7 -3 16 -2 19 1 4 3 -2 6 -13 5 -11 0 -14 -3 -6 -6z"/>
<path d="M11084 2908 l-19 -23 23 19 c21 18 27 26 19 26 -2 0 -12 -10 -23 -22z"/>
<path d="M11250 2898 c-12 -22 -12 -22 6 -6 10 10 15 20 12 24 -4 3 -12 -5
-18 -18z"/>
<path d="M12160 2916 c0 -2 7 -7 16 -10 8 -3 12 -2 9 4 -6 10 -25 14 -25 6z"/>
<path d="M12015 2870 c3 -5 10 -10 16 -10 5 0 9 5 9 10 0 6 -7 10 -16 10 -8 0
-12 -4 -9 -10z"/>
<path d="M10638 2813 c7 -3 16 -2 19 1 4 3 -2 6 -13 5 -11 0 -14 -3 -6 -6z"/>
<path d="M9771 2694 c0 -11 3 -14 6 -6 3 7 2 16 -1 19 -3 4 -6 -2 -5 -13z"/>
<path d="M11995 2690 c10 -11 23 -20 28 -20 6 0 2 9 -8 20 -10 11 -23 20 -28
20 -6 0 -2 -9 8 -20z"/>
<path d="M11186 2679 c2 -4 -2 -10 -8 -12 -8 -4 -9 -6 -2 -6 6 -1 17 5 23 12
8 10 7 14 -4 14 -8 0 -12 -4 -9 -8z"/>
<path d="M11537 2521 c-4 -17 -3 -21 5 -13 5 5 8 16 6 23 -3 8 -7 3 -11 -10z"/>
<path d="M11930 2330 c0 -5 5 -10 11 -10 5 0 7 5 4 10 -3 6 -8 10 -11 10 -2 0
-4 -4 -4 -10z"/>
<path d="M11950 2298 c0 -9 5 -20 10 -23 13 -8 13 5 0 25 -8 13 -10 13 -10 -2z"/>
<path d="M5265 1580 c-3 -5 -2 -10 4 -10 5 0 13 5 16 10 3 6 2 10 -4 10 -5 0
-13 -4 -16 -10z"/>
<path d="M5235 1550 c-3 -5 -2 -10 4 -10 5 0 13 5 16 10 3 6 2 10 -4 10 -5 0
-13 -4 -16 -10z"/>
<path d="M5046 1021 c-4 -5 3 -7 14 -4 23 6 26 13 6 13 -8 0 -17 -4 -20 -9z"/>
<path d="M4958 943 c7 -3 16 -2 19 1 4 3 -2 6 -13 5 -11 0 -14 -3 -6 -6z"/>
</g>
</svg>
