<?xml version="1.0" ?><svg viewBox="0 0 64 64" xmlns="http://www.w3.org/2000/svg"><defs><style>.cls-1,.cls-8{fill:#eaeaea;}.cls-2{fill:#ffce56;}.cls-10,.cls-11,.cls-2,.cls-4,.cls-5,.cls-6,.cls-7,.cls-8,.cls-9{stroke:#4c241d;stroke-linecap:round;stroke-linejoin:round;stroke-width:2px;}.cls-3{fill:#4c241d;}.cls-4{fill:none;}.cls-5{fill:#9dc1e4;}.cls-6{fill:#ffded5;}.cls-7{fill:#ccc;}.cls-9{fill:#a9ba5a;}.cls-10{fill:#ffec95;}.cls-11{fill:#ffe8dc;}</style></defs><g id="deal-people"><circle class="cls-1" cx="30" cy="34" r="23"/><path class="cls-2" d="M16.3234,9H24a0,0,0,0,1,0,0V9a4,4,0,0,1-4,4H14a0,0,0,0,1,0,0V11.3234A2.3234,2.3234,0,0,1,16.3234,9Z"/><path class="cls-3" d="M35,50a1,1,0,1,1-1-1A1,1,0,0,1,35,50Z"/><line class="cls-4" x1="56" x2="56" y1="9" y2="13"/><line class="cls-4" x1="54" x2="58" y1="11" y2="11"/><polygon class="cls-5" points="22 62 14 62 13 41.1 13 29 23 29 23 41.1 22 62"/><line class="cls-4" x1="18" x2="18" y1="45" y2="62"/><path class="cls-6" d="M14,13h8a0,0,0,0,1,0,0v9a0,0,0,0,1,0,0H18.1888A4.1888,4.1888,0,0,1,14,17.8112V13A0,0,0,0,1,14,13Z"/><path class="cls-7" d="M38,9h6a4,4,0,0,1,4,4v0a0,0,0,0,1,0,0H40.3234A2.3234,2.3234,0,0,1,38,10.6766V9A0,0,0,0,1,38,9Z" transform="translate(86 22) rotate(180)"/><polygon class="cls-7" points="40 62 48 62 49 41.1 49 29 39 29 39 41.1 40 62"/><line class="cls-4" x1="44" x2="44" y1="45" y2="62"/><path class="cls-8" d="M44.1888,13H48a0,0,0,0,1,0,0v9a0,0,0,0,1,0,0H40a0,0,0,0,1,0,0V17.1888A4.1888,4.1888,0,0,1,44.1888,13Z" transform="translate(88 35) rotate(180)"/><path class="cls-7" d="M39,33H36V25.3333A3.3333,3.3333,0,0,1,39.3333,22H49.6666A3.3334,3.3334,0,0,1,53,25.3333V34H49v6H39Z"/><line class="cls-4" x1="49" x2="49" y1="28" y2="40"/><polyline class="cls-7" points="53 27.027 53 34 45 34 45 30.015 49 30.015 49 27"/><path class="cls-7" d="M41,30h2a2,2,0,0,1,2,2v0a2,2,0,0,1-2,2H41a0,0,0,0,1,0,0V30A0,0,0,0,1,41,30Z" transform="translate(86 64) rotate(180)"/><line class="cls-4" x1="4" x2="61" y1="62" y2="62"/><path class="cls-9" d="M23,33h3V25.3333A3.3333,3.3333,0,0,0,22.6667,22H12.3334A3.3334,3.3334,0,0,0,9,25.3333V34h4v6H23Z"/><circle class="cls-10" cx="31" cy="26" r="11"/><circle class="cls-2" cx="31" cy="26" r="8"/><polyline class="cls-4" points="34 23 28 23 28 26 34 26 34 29 28 29"/><line class="cls-4" x1="31" x2="31" y1="21" y2="31"/><line class="cls-4" x1="13" x2="13" y1="28" y2="40"/><polyline class="cls-9" points="9 27.027 9 34 17 34 17 30.015 13 30.015 13 27"/><path class="cls-11" d="M17,30h2a2,2,0,0,1,2,2v0a2,2,0,0,1-2,2H17a0,0,0,0,1,0,0V30A0,0,0,0,1,17,30Z"/><path class="cls-11" d="M29.5,36.5h1.2792A1.7208,1.7208,0,0,1,32.5,38.2208v.5584A1.7208,1.7208,0,0,1,30.7792,40.5H29.5a0,0,0,0,1,0,0v-4A0,0,0,0,1,29.5,36.5Z" transform="translate(69.5 7.5) rotate(90)"/><path class="cls-4" d="M29,5a2,2,0,1,1,2,2V9"/><circle class="cls-3" cx="31" cy="12" r="1"/></g></svg>